<svg width="24" height="18" viewBox="0 0 24 18" fill="none" xmlns="http://www.w3.org/2000/svg">
<path d="M23.5083 0.230998C23.6567 0.379458 23.7401 0.580785 23.7401 0.790706C23.7401 1.00063 23.6567 1.20196 23.5083 1.35042L7.67498 17.1838C7.52652 17.3322 7.32519 17.4155 7.11527 17.4155C6.90535 17.4155 6.70402 17.3322 6.55556 17.1838L0.22223 10.8504C0.0780217 10.7011 -0.00177382 10.5011 2.99271e-05 10.2936C0.00183368 10.086 0.0850922 9.88742 0.231874 9.74064C0.378655 9.59386 0.577215 9.5106 0.784788 9.5088C0.99236 9.507 1.19234 9.58679 1.34165 9.731L7.11448 15.5054L22.3873 0.232581C22.4609 0.158856 22.5482 0.100364 22.6444 0.0604537C22.7406 0.0205435 22.8437 0 22.9478 0C23.0519 0 23.1551 0.0205435 23.2512 0.0604537C23.3474 0.100364 23.4348 0.157273 23.5083 0.230998Z" fill="white"/>
</svg>
