<svg width="298" height="100" viewBox="0 0 298 100" fill="none" xmlns="http://www.w3.org/2000/svg">
<mask id="mask0_2024_446" style="mask-type:luminance" maskUnits="userSpaceOnUse" x="72" y="31" width="43" height="37">
<path d="M103.809 67.1076C104.73 67.0909 105.657 67.0406 106.564 66.9012C107.485 66.7562 108.348 66.5331 109.185 66.1593C110.016 65.8023 110.769 65.3282 111.419 64.7704C112.069 64.2125 112.623 63.5655 113.035 62.857C113.46 62.1374 113.73 61.4067 113.898 60.6146C114.065 59.8337 114.117 59.0415 114.136 58.2495C114.149 57.8869 114.149 57.5243 114.155 57.1617V40.9571C114.155 40.5945 114.155 40.2319 114.136 39.8693C114.117 39.0828 114.059 38.2851 113.898 37.5042C113.73 36.7121 113.46 35.9757 113.035 35.2617C112.617 34.5589 112.069 33.9118 111.419 33.3484C110.769 32.7906 110.009 32.3165 109.185 31.9594C108.341 31.5969 107.485 31.3626 106.564 31.2175C105.657 31.0781 104.73 31.0279 103.809 31.0112C103.635 31.0112 103.461 31.0056 103.178 31H84.6228L82.8458 31.0167C81.9251 31.0335 80.998 31.0837 80.0902 31.2231C79.1695 31.3682 78.3068 31.5969 77.4698 31.965C76.6393 32.322 75.886 32.7962 75.2357 33.354C74.5855 33.9118 74.0318 34.5589 73.6197 35.2673C73.1883 35.9869 72.9244 36.7176 72.757 37.5097C72.5831 38.2907 72.5316 39.0828 72.5059 39.8749C72.493 40.2375 72.493 40.6001 72.4866 40.9626V57.1673C72.4866 57.5299 72.493 57.8924 72.5059 58.255C72.5252 59.0415 72.5831 59.8392 72.7441 60.6201C72.9115 61.4123 73.1819 62.1486 73.6068 62.8626C74.0253 63.5655 74.5726 64.2125 75.2229 64.7759C75.8731 65.3338 76.6328 65.8079 77.4569 66.1649C78.3004 66.5275 79.1567 66.7617 80.0773 66.9068C80.9851 67.0462 81.9123 67.0965 82.8329 67.1132C83.0068 67.1132 83.1806 67.1188 83.4639 67.1243H101.034L103.796 67.1132C103.796 67.1132 103.809 67.1076 103.809 67.1076Z" fill="white"/>
</mask>
<g mask="url(#mask0_2024_446)">
<path d="M72.4866 31H114.155V67.1243H72.4866V31Z" fill="white"/>
<path fill-rule="evenodd" clip-rule="evenodd" d="M72.4866 31H114.155V42.8533L72.4866 37.2089V31Z" fill="white"/>
<path fill-rule="evenodd" clip-rule="evenodd" d="M72.4866 63.1732L114.155 57.5288V67.1243H72.4866V63.1732Z" fill="white"/>
<path fill-rule="evenodd" clip-rule="evenodd" d="M72.4866 36.4946L87.0314 38.4648C88.842 37.4713 90.996 36.9265 93.321 36.9265C96.5411 36.9265 99.4334 37.9716 101.539 39.8067C101.805 40.0383 102.056 40.2804 102.291 40.5319L114.155 42.139V43.5672L103.496 42.1233C104.287 43.4408 104.715 44.9088 104.715 46.4069C104.715 48.3422 104.215 50.2719 103.183 52.2094L103.152 52.2681L102.713 53.0824H101.677C99.5362 53.0824 98.1163 53.6375 97.188 54.6213C96.4591 55.3937 96.0376 56.435 95.8957 57.5711L95.8914 57.6066L95.8707 57.7882L95.8619 57.8672L95.845 58.0216C95.7907 58.5289 95.7544 58.959 95.736 59.3096L114.155 56.8146V58.2427L72.4866 63.8871V62.459L90.9266 59.961L90.9186 59.6404L90.9161 59.55L90.9146 59.5036L90.9116 59.4321C90.8951 59.0433 90.854 58.545 90.7882 57.9409L90.7755 57.8264L90.7529 57.628C90.6206 56.4859 90.2053 55.4313 89.4784 54.6475C88.5598 53.657 87.153 53.0938 85.0297 53.0825L84.9651 53.0824H83.9285L83.4901 52.2681C82.4366 50.3109 81.9272 48.3618 81.9272 46.4069C81.9272 43.9484 83.0776 41.5712 85.1025 39.8067C85.1609 39.7558 85.22 39.7055 85.2796 39.6557L72.4866 37.9228V36.4946Z" fill="#0E0E0E"/>
<path fill-rule="evenodd" clip-rule="evenodd" d="M93.321 38.3379C99.1384 38.3379 103.087 42.2197 103.087 46.4072C103.087 48.0883 102.664 49.8376 101.677 51.6715C95.9526 51.6715 94.5397 55.2256 94.2725 57.4617L94.2555 57.6107C94.1648 58.4087 94.1126 59.049 94.0982 59.5317L92.5477 59.7419L92.5474 59.6984C92.5415 59.1923 92.4863 58.4825 92.3819 57.5688L92.3774 57.5289C92.1305 55.2977 90.7473 51.6715 84.9652 51.6715C83.978 49.8376 83.5549 48.0883 83.5549 46.4072C83.5549 42.2197 87.5037 38.3379 93.321 38.3379Z" fill="white"/>
</g>
<path fill-rule="evenodd" clip-rule="evenodd" d="M133.729 36.542C127.044 36.542 122.031 40.1405 122.074 46.3904H128.287C128.201 43.8905 130.001 41.4662 133.729 41.4662C136.556 41.4662 138.356 43.1329 138.356 45.2541C138.356 47.4511 136.385 48.6632 133.214 50.0268C129.058 51.8071 126.573 52.6404 122.074 53.9662V61.1632H144.355V56.239H130.472C132.62 55.4475 134.71 54.5784 136.599 53.7768C141.613 51.6556 144.569 49.2693 144.569 44.989C144.569 39.8374 140.199 36.542 133.729 36.542ZM154.21 41.845H167.065V36.9208H148.211V61.1632H154.21V41.845ZM176.063 36.9208H170.064V61.1632H176.02L187.203 45.6708V61.1632H193.202V36.9208H187.203L176.063 52.4132L176.063 36.9208ZM223.324 52.0723H217.111C216.169 54.7617 213.298 56.6178 209.913 56.6178C204.985 56.6178 201.772 52.8678 201.772 49.042C201.772 45.2162 204.9 41.4662 210.084 41.4662C213.512 41.4662 216.169 43.3223 217.111 46.0117H223.324C222.425 40.595 217.583 36.542 209.913 36.542C201.429 36.542 195.773 41.8071 195.773 49.042C195.773 56.2768 201.429 61.542 209.913 61.542C217.583 61.542 222.425 57.5646 223.324 52.0723Z" fill="white"/>
</svg>
