<svg width="298" height="100" viewBox="0 0 298 100" fill="none" xmlns="http://www.w3.org/2000/svg">
<path fill-rule="evenodd" clip-rule="evenodd" d="M180.951 38.7295H165.952V54.155H169.876V48.4425H180.951C184.059 48.4425 186.507 46.2558 186.507 43.5775C186.507 40.9162 184.02 38.7295 180.951 38.7295ZM180.154 45.7642H169.876V41.4925H180.154C181.475 41.4925 182.602 42.4248 182.602 43.6284C182.602 44.8149 181.514 45.7642 180.154 45.7642Z" fill="white"/>
<path fill-rule="evenodd" clip-rule="evenodd" d="M140.675 38.7295V45.0184H144.599V41.4078H149.651V54.155H153.556V41.4078H158.607V45.0184H162.513V38.7295H162.474H140.675Z" fill="white"/>
<path fill-rule="evenodd" clip-rule="evenodd" d="M228.764 38.7295L216.116 49.8833V38.7295H212.211V54.155H216.116L228.764 43.052V54.155H232.669V38.7295H228.764Z" fill="white"/>
<path fill-rule="evenodd" clip-rule="evenodd" d="M199.816 38.645H190.043V41.4928H198.961C201.545 41.4928 203.74 43.0184 204.401 45.1034H190.043V47.7817H204.401C203.721 49.8497 201.525 51.3584 198.961 51.3584H190.043V54.1214H199.816C204.712 54.1214 208.675 50.6634 208.675 46.3747C208.675 42.1031 204.712 38.645 199.816 38.645Z" fill="white"/>
<path fill-rule="evenodd" clip-rule="evenodd" d="M123.092 41.289H126.589C127.949 41.289 129.037 40.2889 129.037 39.1362V36.1358C129.037 34.9493 127.91 34 126.589 34H123.15C121.771 34 120.683 34.9832 120.683 36.1358V39.187C120.741 40.3397 121.771 41.289 123.092 41.289Z" fill="white"/>
<path fill-rule="evenodd" clip-rule="evenodd" d="M126.589 51.5273H122.995C122.101 51.5273 121.207 51.2391 120.547 50.6628L119.886 50.0864C119.226 49.5101 118.895 48.7642 118.895 47.9506V44.8146C118.895 43.6619 117.807 42.7127 116.506 42.7127H112.911C112.018 42.7127 111.124 42.4245 110.463 41.8651L109.803 41.2888C109.142 40.7124 108.812 39.9666 108.812 39.136V36.1865C108.812 34.983 107.685 34.0337 106.364 34.0337H102.925C101.546 34.0337 100.458 35.0338 100.458 36.1865V39.1868C100.458 40.3734 101.604 41.3227 102.925 41.3227H106.461C107.355 41.3227 108.248 41.6108 108.909 42.1872L109.57 42.7635C110.23 43.3399 110.56 44.0857 110.56 44.8994V47.9845C110.56 49.1372 111.648 50.0864 112.95 50.0864H116.486C117.399 50.0864 118.293 50.3746 118.954 50.9509L119.653 51.5612C120.314 52.1375 120.644 52.8834 120.644 53.697V56.7482C120.644 57.9348 121.771 58.8841 123.092 58.8841H126.531C127.91 58.8841 128.998 57.9009 128.998 56.7482V53.7479C129.076 52.5104 127.949 51.5273 126.589 51.5273Z" fill="white"/>
<path fill-rule="evenodd" clip-rule="evenodd" d="M126.589 42.7637H123.053C122.159 42.7637 121.265 42.4756 120.605 41.8992L119.944 41.3229C119.284 40.7466 118.953 40.0007 118.953 39.187V36.1358C118.953 34.9493 117.807 34 116.505 34H113.047C111.687 34 110.599 34.9832 110.599 36.1358V39.187C110.599 40.3397 111.687 41.289 113.008 41.289H116.641C117.535 41.289 118.429 41.5772 119.089 42.1535L119.75 42.7129C120.411 43.2892 120.741 44.0351 120.741 44.8657V47.9847C120.741 49.1374 121.829 50.0866 123.15 50.0866H126.628C128.007 50.0866 129.076 49.1035 129.076 47.9508V44.8148C129.076 43.713 127.949 42.7637 126.589 42.7637Z" fill="white"/>
<path fill-rule="evenodd" clip-rule="evenodd" d="M116.583 51.5274H113.008C112.115 51.5274 111.26 51.1884 110.599 50.6629L109.939 50.0866C109.278 49.5102 108.948 48.7644 108.948 47.9507V44.8656C108.948 43.7129 107.86 42.7637 106.539 42.7637H103.061C101.681 42.7637 100.613 43.7468 100.613 44.8995V56.7484C100.613 57.9349 101.74 58.8842 103.061 58.8842H116.486C117.865 58.8842 118.953 57.901 118.953 56.7484V53.6972C118.992 52.4767 117.904 51.5274 116.583 51.5274Z" fill="white"/>
<path fill-rule="evenodd" clip-rule="evenodd" d="M82.2336 45.883H90.8405C91.6565 45.883 92.1811 45.4083 92.3948 44.7981C92.4919 44.5438 92.5502 44.2726 92.5502 43.9844C92.5502 43.7132 92.4919 43.442 92.3948 43.1877C92.1811 42.5605 91.6565 42.0859 90.8405 42.0859H83.5548C82.6416 42.0859 81.9033 41.4418 81.9033 40.6451V34.3562C81.9033 34.2036 82.0393 34.085 82.2336 34.085H94.3571C94.5319 34.085 94.6873 34.2036 94.6873 34.3562V36.6785C94.6873 36.831 94.5319 36.9497 94.3571 36.9497H85.2062V39.2042H91.5205C93.8908 39.2042 95.4062 40.4586 96.0668 42.035C96.3193 42.6453 96.4553 43.3064 96.4553 43.9505C96.4553 44.6116 96.3193 45.2727 96.0668 45.883C95.4062 47.4594 93.8908 48.6968 91.5205 48.6968H82.2336C82.0393 48.6968 81.9033 48.5782 81.9033 48.4087V46.1711C81.9033 46.0186 82.0393 45.883 82.2336 45.883Z" fill="white"/>
<path fill-rule="evenodd" clip-rule="evenodd" d="M66.8073 45.883H75.4142C76.2302 45.883 76.7548 45.51 76.9879 45.0015C77.0656 44.815 77.1239 44.5947 77.1239 44.3743C77.1239 44.1709 77.0656 43.9505 76.9879 43.7471C76.7548 43.2555 76.2302 42.8656 75.4142 42.8656H66.8073C66.6131 42.8656 66.4771 42.747 66.4771 42.5775V40.2721C66.4771 40.1196 66.6131 39.984 66.8073 39.984H75.4142C76.2302 39.984 76.7548 39.611 76.9879 39.1025C77.0656 38.916 77.1239 38.6957 77.1239 38.4753C77.1239 38.2719 77.0656 38.0515 76.9879 37.8481C76.7548 37.3565 76.2302 36.9667 75.4142 36.9667H66.8073C66.6131 36.9667 66.4771 36.848 66.4771 36.6785V34.3731C66.4771 34.2206 66.6131 34.085 66.8073 34.085H76.0942C77.5902 34.085 78.7365 34.5426 79.5719 35.2546C80.0576 35.6614 80.4074 36.17 80.6599 36.7293C80.8931 37.2718 81.0291 37.8651 81.0291 38.4414C81.0291 39.5093 80.6211 40.5772 79.8245 41.3909C80.6211 42.2046 81.0291 43.2725 81.0291 44.3404C81.0291 44.9337 80.8931 45.527 80.6599 46.0694C80.4074 46.6118 80.0576 47.1204 79.5719 47.5442C78.7365 48.2392 77.5902 48.6968 76.0942 48.6968H66.8073C66.6131 48.6968 66.4771 48.5782 66.4771 48.4087V46.1711C66.4771 46.0186 66.6131 45.883 66.8073 45.883Z" fill="white"/>
<path fill-rule="evenodd" clip-rule="evenodd" d="M70.7902 50.5278H72.8885C73.0245 50.5278 73.1411 50.5956 73.1799 50.7143L77.1822 58.4101C77.2599 58.5627 77.1822 58.7152 77.0268 58.783C76.9879 58.8 76.9491 58.8169 76.8908 58.8169H74.6954C74.5594 58.8169 74.4234 58.7322 74.3845 58.6135L71.7616 53.0705L69.1971 58.6305C69.1388 58.7491 69.0222 58.8169 68.9056 58.8169H66.7879C66.6131 58.8169 66.4771 58.6813 66.4771 58.5288C66.4771 58.4779 66.4965 58.444 66.5159 58.4101L70.4988 50.6973C70.5571 50.5956 70.6736 50.5278 70.7902 50.5278ZM90.7045 52.4433H87.9845C87.8097 52.4433 87.6737 52.3247 87.6737 52.1721V50.816C87.6737 50.6634 87.8097 50.5448 87.9845 50.5448H96.1251C96.3 50.5448 96.4554 50.6634 96.4554 50.816V52.1721C96.4554 52.3247 96.3 52.4433 96.1251 52.4433H93.3857V58.5288C93.3857 58.6813 93.2497 58.8169 93.0748 58.8169H91.0348C90.8405 58.8169 90.7045 58.6813 90.7045 58.5288V52.4433ZM82.3891 52.4433C81.2428 52.4433 80.6016 52.8501 80.4851 53.6638H85.6531C85.8279 53.6638 85.9639 53.7994 85.9639 53.952V55.3081C85.9639 55.4606 85.8279 55.5793 85.6531 55.5793H80.4851C80.5239 56.003 80.6599 56.3251 80.8931 56.5285C81.0291 56.6472 81.2234 56.7319 81.4565 56.7998H81.4759C81.7285 56.8676 82.0394 56.9015 82.3891 56.9015H85.6531C85.8279 56.9015 85.9639 57.0201 85.9639 57.1727V58.5288C85.9639 58.6813 85.8279 58.8169 85.6531 58.8169H82.3114C81.9811 58.8169 81.6702 58.8 81.3982 58.783C81.1262 58.7661 80.8931 58.7322 80.6988 58.6983C80.4268 58.6474 80.1548 58.5627 79.9022 58.461C79.6496 58.3593 79.3971 58.2236 79.1834 58.0711C78.6588 57.7321 78.2508 57.2744 77.9982 56.7319C77.7456 56.1895 77.6096 55.5454 77.6096 54.8165C77.6096 53.3926 77.9982 52.3416 78.8142 51.6127C79.6108 50.8838 80.7959 50.5278 82.3502 50.5278H85.6531C85.8279 50.5278 85.9639 50.6465 85.9639 50.799V52.1551C85.9639 52.3077 85.8279 52.4433 85.6531 52.4433H82.3891Z" fill="white"/>
<path fill-rule="evenodd" clip-rule="evenodd" d="M127.153 64.3426C127.366 64.3426 127.561 64.2918 127.716 64.1901C127.871 64.1053 127.988 63.9697 128.085 63.8002C128.163 63.6137 128.202 63.4103 128.202 63.1561C128.202 62.9018 128.163 62.6814 128.085 62.5119C127.988 62.3424 127.871 62.2068 127.716 62.1051C127.561 62.0034 127.366 61.9695 127.153 61.9695C126.919 61.9695 126.725 62.0034 126.57 62.1051C126.414 62.2068 126.298 62.3424 126.22 62.5119C126.142 62.6814 126.084 62.9018 126.084 63.1561C126.084 63.4103 126.142 63.6137 126.22 63.8002C126.298 63.9697 126.414 64.1053 126.589 64.1901C126.745 64.2918 126.919 64.3426 127.153 64.3426ZM127.153 64.9529C126.745 64.9529 126.395 64.8851 126.103 64.7495C125.812 64.5969 125.598 64.3935 125.443 64.1223C125.287 63.8511 125.21 63.529 125.21 63.1561C125.21 62.7831 125.287 62.4611 125.443 62.1898C125.598 61.9186 125.812 61.7152 126.103 61.5627C126.395 61.4101 126.745 61.3423 127.153 61.3423C127.561 61.3423 127.891 61.4101 128.182 61.5627C128.474 61.7152 128.707 61.9186 128.862 62.1898C128.998 62.4611 129.076 62.7831 129.076 63.1561C129.076 63.529 128.998 63.8511 128.862 64.1223C128.707 64.3935 128.474 64.5969 128.182 64.7495C127.891 64.8851 127.561 64.9529 127.153 64.9529ZM121.441 64.8851V61.4101H122.295V62.834H123.811V61.4101H124.646V64.8851H123.811V63.4442H122.295V64.8851H121.441ZM118.526 63.2408V64.2579H119.206C119.439 64.2579 119.614 64.207 119.731 64.1223C119.847 64.0375 119.925 63.9189 119.925 63.7493C119.925 63.5798 119.847 63.4612 119.731 63.3595C119.614 63.2747 119.439 63.2408 119.206 63.2408H118.526ZM117.671 61.4101H118.526V62.6136H119.265C119.575 62.6136 119.847 62.6645 120.081 62.7492C120.314 62.8509 120.489 62.9696 120.605 63.1391C120.722 63.3086 120.799 63.512 120.799 63.7493C120.799 64.1053 120.663 64.3765 120.391 64.58C120.119 64.7834 119.731 64.8851 119.265 64.8851H117.671V61.4101ZM113.242 64.8851V64.2579H113.553C113.669 64.2579 113.747 64.224 113.805 64.1562C113.863 64.1053 113.902 64.0206 113.922 63.9019L114.174 61.4101H116.914V64.8851H116.078V62.0373H114.951L114.738 64.0375C114.718 64.2918 114.621 64.4952 114.466 64.6478C114.31 64.8003 114.097 64.8851 113.805 64.8851H113.242ZM112.542 64.8851H111.707V62.5797L110.133 64.8851H109.181V61.4101H110.036V63.8172L111.61 61.4101H112.542V64.8851ZM106.15 62.8509H106.83C107.044 62.8509 107.199 62.817 107.335 62.7492C107.452 62.6645 107.51 62.5628 107.51 62.4441C107.51 62.2916 107.452 62.1898 107.335 62.122C107.219 62.0542 107.044 62.0203 106.83 62.0203H106.15V62.8509ZM106.15 64.2748H107.005C107.199 64.2748 107.374 64.2409 107.491 64.1731C107.627 64.0884 107.685 63.9867 107.685 63.8341C107.685 63.6985 107.627 63.5798 107.491 63.512C107.374 63.4273 107.199 63.3934 107.005 63.3934H106.15V64.2748ZM105.295 64.8851V61.4101H106.85C107.335 61.4101 107.724 61.4948 107.977 61.6474C108.249 61.8 108.365 62.0373 108.365 62.3594C108.365 62.495 108.346 62.6306 108.268 62.7323C108.21 62.834 108.113 62.9187 107.977 62.9865C107.841 63.0374 107.685 63.0883 107.51 63.0883C107.841 63.1052 108.093 63.19 108.268 63.3425C108.443 63.4781 108.54 63.6815 108.54 63.9189C108.54 64.2409 108.404 64.4952 108.151 64.6478C107.899 64.8003 107.53 64.8851 107.044 64.8851H105.295ZM102.459 63.529L102.983 62.1898L103.527 63.529H102.459ZM101.06 64.8851H101.934L102.226 64.1392H103.761L104.052 64.8851H104.926L103.489 61.4101H102.498L101.06 64.8851ZM98.9228 63.0544H99.6028C99.836 63.0544 100.011 63.0204 100.127 62.9357C100.244 62.8509 100.302 62.7153 100.302 62.5458C100.302 62.3763 100.244 62.2576 100.127 62.1729C100.011 62.0881 99.836 62.0373 99.6028 62.0373H98.9228V63.0544ZM98.068 64.8851V61.4101H99.6611C100.127 61.4101 100.516 61.5118 100.788 61.7152C101.041 61.9186 101.177 62.1898 101.177 62.5458C101.177 62.7831 101.118 62.9865 101.002 63.1561C100.885 63.3256 100.71 63.4612 100.477 63.5459C100.244 63.6476 99.972 63.6815 99.6611 63.6815H98.9228V64.8851H98.068ZM94.124 64.8851V61.4101H97.3103V64.8851H96.4748V62.0373H94.9788V64.8851H94.124ZM86.4497 64.8851V61.4101H87.5959L88.6062 63.9358L89.6165 61.4101H90.7434V64.8851H89.908V62.6306L88.9754 64.8681H88.2371L87.3045 62.6306V64.8851H86.4497ZM82.9914 64.8851V61.4101H85.7502V62.0373H83.8462V62.834H85.6919V63.4442H83.8462V64.2579H85.8085V64.8851H82.9914ZM80.1548 63.529H81.2039L80.6794 62.1898L80.1548 63.529ZM78.7365 64.8851L80.1742 61.4101H81.1845L82.6222 64.8851H81.7285L81.4371 64.1392H79.9216L79.6302 64.8851H78.7365ZM74.5982 64.8851V64.2579H74.9091C75.0256 64.2579 75.1034 64.224 75.1616 64.1562C75.2199 64.1053 75.2588 64.0206 75.2782 63.9019L75.5308 61.4101H78.2896V64.8851H77.4348V62.0373H76.3079L76.0942 64.0375C76.0748 64.2918 75.9776 64.4952 75.8222 64.6478C75.6668 64.8003 75.4531 64.8851 75.1616 64.8851H74.5982ZM71.2565 64.8851V61.4101H74.0154V62.0373H72.1113V62.834H73.9571V63.4442H72.1113V64.2579H74.0736V64.8851H71.2565ZM67.8176 64.2579H69.3719V62.0373H68.2645L68.0508 63.6646C68.0313 63.8002 67.9925 63.9019 67.9536 64.0036C67.9342 64.1053 67.8759 64.1901 67.8176 64.2579ZM66.4771 65.614V64.2579H66.6519C66.8073 64.2579 66.9239 64.207 67.0016 64.0884C67.0988 63.9867 67.1571 63.8172 67.1765 63.6137L67.4679 61.4101H70.2073V64.2579H70.7125V65.614H69.8576V64.8851H67.3319V65.614H66.4771Z" fill="white"/>
</svg>
