<svg width="298" height="100" viewBox="0 0 298 100" fill="none" xmlns="http://www.w3.org/2000/svg">
<path d="M60.3858 36C60.5375 36.1512 59.9185 37.0708 59.9363 37.614C60.1597 44.4201 65.6623 50.5832 73.421 51.3333C78.8938 51.8625 83.5605 50.0715 87.6801 47.1469C87.8296 47.6731 87.9484 48.2056 88.0356 48.7424C88.236 49.9192 88.5268 51.4416 87.7074 52.4319C84.3634 56.474 80.6543 58.199 75.1188 58.9159L74.8913 58.9302C74.5695 58.5051 74.7041 54.5088 74.7352 53.6974C73.9227 53.737 72.9526 53.7292 72.1276 53.7406L72.1234 59C69.6397 58.6906 68.8701 58.5197 66.4989 57.8567L66.4583 50.8856C65.6842 50.9412 64.6915 50.9094 63.8941 50.9012C63.9079 52.8124 63.9055 54.6677 63.8941 56.5789C57.5267 52.5941 53.6856 47.2673 55.4414 40.4386C55.8807 38.7305 58.7623 36.8163 60.3858 36Z" fill="white"/>
<path d="M66.9548 34.1004L68.3457 34C68.4431 35.7372 68.6965 36.9066 69.8798 38.4319C71.2666 40.2145 73.4303 41.4537 75.8928 41.8758C79.2179 42.4443 81.3264 41.6136 83.9394 40.1437C85.1302 41.3667 86.5463 43.1509 87.1075 44.6643C86.1017 45.8465 84.1512 47.0192 82.6363 47.6822C80.5861 48.5541 78.3246 49.0054 76.0328 49C72.2268 48.9634 68.5922 47.6466 65.9229 45.337C62.2805 42.1609 61.8441 39.1571 61.8959 35.0254C63.361 34.4189 65.3563 34.2545 66.9548 34.1004Z" fill="white"/>
<path d="M52.2932 42C52.4796 42.2578 52.1652 44.4219 52.1746 45.1243C52.2 46.2545 52.3547 47.3797 52.6364 48.4838C54.017 53.6919 57.9789 56.8866 62.9949 59.5955C63.0727 62.0021 63.0222 64.5808 63.0245 67C62.1998 66.8637 61.9831 66.7953 61.2208 66.5165C49.8899 62.0884 45.9883 51.199 52.2932 42Z" fill="white"/>
<path d="M203.04 50.0125C206.516 49.8006 209.514 52.3132 209.734 55.6226C209.952 58.932 207.31 61.783 203.833 61.9883C200.361 62.1934 197.37 59.6822 197.151 56.3776C196.933 53.0728 199.568 50.2241 203.04 50.0125ZM204.517 59.2207C206.578 58.5318 207.284 56.4811 206.559 54.6177C206.27 53.8684 205.675 53.2619 204.91 52.9355C204.162 52.6098 203.434 52.597 202.636 52.7181C201.871 52.9566 201.461 53.0769 200.922 53.6615C200.069 54.5865 199.852 56.1948 200.262 57.3431C200.511 58.0406 201.043 58.6133 201.741 58.9314C202.653 59.3496 203.522 59.2782 204.517 59.2207Z" fill="white"/>
<path d="M189.526 51.0287C190.45 50.9915 191.554 51.0065 192.493 51C192.604 54.1051 192.538 57.878 192.491 60.9939C191.457 60.9871 190.423 60.9891 189.39 61L189.399 59.551C189.392 58.3211 189.399 57.0912 189.42 55.8613C188.692 56.7575 188.062 57.9474 187.342 58.9207L184.088 58.9431C183.306 57.9662 182.636 56.7366 181.861 55.6904C182.016 57.1369 181.932 59.4516 181.941 60.9817C180.917 61.0047 179.83 60.9949 178.8 60.9999V51.0441L180.391 51.0299C180.972 51.0315 181.565 51.0437 182.147 51.0506C183.374 52.7577 184.387 54.7795 185.672 56.5458C186.869 54.7736 188.224 52.7284 189.526 51.0287Z" fill="white"/>
<path d="M222.696 51.0052L225.791 51.0021C225.685 53.7249 225.816 56.4936 225.767 59.2206C225.758 59.6839 225.855 60.4916 225.72 60.9116L225.551 60.9689C224.564 61.0031 223.125 61.0125 222.174 60.941C220.234 58.749 218.209 56.6079 216.277 54.4083L216.3 60.9709L213.211 61C213.162 57.6799 213.261 54.3418 213.185 51.0137C214.433 51.0028 215.69 50.9781 216.935 51.0439C218.871 53.101 220.821 55.3961 222.697 57.509L222.696 51.0052Z" fill="white"/>
<path d="M116.431 51.0152C117.516 50.9877 118.63 51.0046 119.717 51.0114C120.98 53.1231 122.396 55.2656 123.701 57.3672C124.188 58.1522 125.508 60.3392 126.077 60.9618C124.922 61.0058 123.75 60.9983 122.593 60.9999C122.105 60.1217 121.587 59.406 121.127 58.483L119.636 58.4868C118.098 58.4925 116.484 58.5186 114.953 58.4707C114.52 59.1106 113.761 60.335 113.47 60.9795C112.476 61.0234 111.057 60.9838 110.031 60.9803C110.576 60.006 116.037 51.2761 116.431 51.0152ZM116.54 56.0277L117.72 55.9983L119.495 55.9829C119.143 55.391 118.401 54.0573 118.001 53.522C117.539 54.2766 116.897 55.2618 116.54 56.0277Z" fill="white"/>
<path d="M165.771 51.0086C166.89 50.9963 167.915 50.9934 169.032 51.026C171.142 54.3123 173.209 57.7541 175.362 61L171.903 60.9823C171.6 60.3157 170.803 59.1177 170.393 58.4777L168.78 58.4844C167.286 58.4895 165.715 58.5148 164.229 58.4623C164.004 59.0014 163.083 60.5012 162.723 60.9927C161.588 60.9912 160.451 60.9799 159.315 60.9592C160.808 58.8537 162.127 56.5036 163.532 54.3483C164.211 53.3055 164.946 51.9667 165.771 51.0086ZM165.85 56.0083L167.528 55.9914L168.863 55.9828C168.655 55.6104 167.566 53.8202 167.278 53.5269C166.865 54.4296 166.206 55.233 165.85 56.0083Z" fill="white"/>
<path d="M104.042 51.0314C105.054 50.9781 106.423 51.009 107.462 51.0079C106.42 52.2599 104.624 53.9808 103.402 55.1551C104.288 56.2968 105.153 57.507 106.006 58.6705C106.5 59.359 107.165 60.3461 107.738 60.955C106.631 60.9707 105.505 60.9676 104.396 60.9736C103.446 59.6606 102.505 58.3293 101.479 57.0565C100.885 57.7529 100.023 58.5751 99.362 59.2697C99.3195 59.9241 99.3002 60.3049 99.3576 60.965C98.3316 60.9652 97.3056 60.9768 96.2801 61L96.2769 51.0234L99.3545 51.0143C99.291 52.5003 99.3147 54.1079 99.2818 55.6128C100.625 54.5111 102.569 52.3485 104.042 51.0314Z" fill="white"/>
<path d="M134.365 50.0292C136.092 49.8498 138.003 50.5245 139.447 51.2961C139.178 51.7887 138.318 52.8202 137.922 53.2578C136.974 52.8572 133.616 51.2292 133.158 53.1645C133.115 53.3452 133.563 53.7246 133.772 53.8125C135.449 54.5172 137.57 54.4241 139.003 55.6052C140.235 56.6557 140.024 58.8181 138.82 59.8224C137.65 60.7989 136.037 61.0108 134.516 60.9996C132.544 60.801 131.093 60.4377 129.516 59.3136C129.945 58.6856 130.613 58.0059 131.172 57.4647C132.391 58.1599 133.749 58.7894 135.242 58.6664C135.894 58.6126 136.747 58.3444 136.653 57.6588C135.599 56.1879 130.3 56.8471 130.015 53.888C129.757 51.224 131.631 50.2705 134.365 50.0292Z" fill="white"/>
<path d="M230.434 51.0247L233.527 51C233.51 52.779 233.471 54.5739 233.501 56.3533C233.522 57.5273 233.827 58.1396 235.004 58.8303C235.733 58.8792 236.461 58.8504 237.19 58.8334C237.596 58.6356 238.005 58.3115 238.359 58.05C238.946 56.7666 238.705 52.5999 238.68 51.021L241.838 51.0019L241.826 53.2419C241.838 54.2414 241.842 55.2409 241.836 56.2405C241.814 57.5834 241.593 58.8086 240.306 59.7864C238.14 61.434 233.867 61.41 231.794 59.6776C231.27 59.2401 230.892 58.7071 230.692 58.1261C230.264 56.8826 230.377 52.5147 230.434 51.0247Z" fill="white"/>
<path d="M143.269 51.0395C148.094 50.9959 153.357 50.9743 158.169 51.0506L158.14 53.5445C156.389 53.4508 154.115 53.5713 152.238 53.5035C152.272 54.3978 152.25 55.3826 152.254 56.2843L152.258 60.9688L149.073 61C149.018 58.5472 149.068 55.973 149.074 53.5121C147.172 53.5177 145.19 53.5044 143.297 53.5639C143.308 52.7224 143.299 51.8808 143.269 51.0395Z" fill="white"/>
<path d="M86.1207 56.2414L87.1077 55C87.0129 55.6083 86.2532 57.4828 85.3066 59.1379C83.0496 63.0842 79.0461 65.7674 74.5439 67C74.56 65.1097 74.5455 63.2195 74.5 61.3297C78.8998 61.097 83.0479 59.2806 86.1207 56.2414Z" fill="white"/>
<path d="M65.3306 60C68.0539 60.5499 68.23 60.8114 71.0613 60.8969C71.0245 62.8618 71.0505 64.8896 71.0471 66.8595C68.9062 67.0733 67.5192 67.0322 65.4021 66.8101C65.3846 64.5791 65.4401 62.2096 65.3306 60Z" fill="white"/>
<path d="M71.0615 34C76.1314 34.9441 78.3197 35.4557 82.5231 38.5757L81.5068 39.2909C80.6274 39.6307 79.6789 39.9037 78.719 39.9789C76.84 40.1143 74.9758 39.5952 73.5289 38.5335C71.8625 37.2996 71.2378 35.8373 71.0615 34Z" fill="white"/>
</svg>
