<svg width="298" height="100" viewBox="0 0 298 100" fill="none" xmlns="http://www.w3.org/2000/svg">
<path d="M103.422 38.0007L103.47 38.0251C103.609 38.2728 103.529 59.8521 103.529 62C101.896 61.9018 99.2951 61.9787 97.6192 61.9876L97.6136 46.4847C96.0273 49.2045 93.8214 52.3852 92.0327 55.0676C90.5234 52.8938 89.1445 50.6203 87.6682 48.4272C87.2457 47.7995 86.7897 47.1145 86.4439 46.4564L86.4418 51.7706L86.4394 61.9958C84.7359 61.9114 82.2876 61.9759 80.5445 61.9895L80.5405 38L86.4494 38.0168C88.3156 40.7264 90.2523 43.8805 92.0326 46.6577C93.3344 44.4921 94.8356 42.3706 96.1575 40.21C96.605 39.4785 97.1056 38.7061 97.6076 38.003L103.422 38.0007Z" fill="white"/>
<path d="M107.181 38.0334C108.632 37.9711 110.425 38.015 111.896 38.0151L120.6 38.0165C120.639 38.8344 120.822 40.1266 120.912 40.9789L121.53 46.7935L123.112 61.9983C121.583 61.9032 119.045 61.979 117.455 61.9932C117.373 61.0998 117.299 60.2058 117.235 59.3113C117.136 58.3086 117.019 57.3076 116.883 56.3086C115.345 56.235 112.404 56.238 110.877 56.3158C110.623 58.1064 110.476 60.1784 110.287 62C108.698 61.9066 106.315 61.9785 104.703 61.9869C104.794 59.978 105.074 57.8183 105.31 55.8164C106.009 49.9068 106.463 43.9367 107.181 38.0334ZM111.329 51.149L115.804 51.1469C116.09 51.1413 116.232 51.1873 116.421 51.0449C116.225 48.4097 115.824 45.7904 115.652 43.141C114.486 43.1169 113.32 43.1185 112.154 43.1459L111.329 51.149Z" fill="white"/>
<path d="M125.423 38.0417C126.979 37.9541 129.491 38.0316 131.106 38.0319L142.672 38.0255L142.672 54.7635L134.842 54.7645C133.558 54.7498 132.273 54.7599 130.989 54.7947C131.017 57.178 130.99 59.6127 130.99 62C129.379 61.9125 127.065 61.9783 125.413 61.9946C125.467 59.332 125.419 56.5226 125.419 53.8506L125.423 38.0417ZM130.989 49.5949C131.763 49.5997 136.727 49.6976 137.13 49.5713L137.134 43.1504C135.279 43.1345 132.803 43.0688 130.989 43.1641L130.989 49.5949Z" fill="white"/>
<path d="M151.778 38.0039L151.836 38.0477C151.911 38.5204 151.872 40.4388 151.871 41.0105L151.865 47.2157C152.688 47.2331 153.558 47.2221 154.386 47.224C156.016 44.1868 157.602 41.0014 159.284 38L165.286 38.0159C163.531 41.6059 160.935 45.9741 158.963 49.5691C159.384 50.1663 160.857 52.9905 161.24 53.7167C162.679 56.449 164.283 59.2233 165.683 61.9574C164.276 62.0536 160.883 61.9575 159.356 61.9528C159.075 61.263 158.499 60.3301 158.153 59.6144C157.027 57.2914 155.434 54.7487 154.4 52.4262C153.562 52.4185 152.704 52.4309 151.864 52.4353V61.9748C150.207 61.8873 147.823 61.953 146.124 61.9694C146.26 54.1047 146.129 45.8936 146.134 38.0038L151.778 38.0039Z" fill="white"/>
<path d="M184.033 38C184.139 38.2202 184.072 42.5183 184.067 43.1227C180.351 43.0538 176.234 43.0971 172.511 43.1279L172.514 47.3571L178.433 47.3577L178.439 52.5424C176.503 52.5063 174.465 52.5356 172.52 52.5357C172.495 53.9174 172.515 55.3469 172.514 56.7323C176.315 56.7871 180.257 56.7386 184.069 56.7395L184.065 62C182.563 61.8976 179.705 61.9774 178.136 61.977L166.834 61.9905L166.841 38.0048L184.033 38Z" fill="white"/>
<path d="M185.246 38.0049L203.652 38L203.647 43.1237C201.571 43.1132 199.495 43.1136 197.418 43.1251L197.421 56.5995L197.419 62C195.849 61.9005 193.128 61.9762 191.477 61.993L191.476 43.1255C189.398 43.1137 187.321 43.1129 185.243 43.123L185.246 38.0049Z" fill="white"/>
<path d="M71.3386 40C71.6052 40.2163 72.8708 42.1174 73.1579 42.5391C74.4516 44.4624 75.7619 46.3776 77.0888 48.2847C76.3227 48.8052 75.4876 49.3669 74.6897 49.8465C73.5746 50.5863 72.4959 51.3094 71.3359 52L71.3386 40Z" fill="white"/>
<path d="M76.9757 38L77.034 38.034C77.1171 38.4286 77.0812 40.3175 77.0807 40.8054L77.0628 47C76.3769 46.0204 75.6377 44.8136 74.9836 43.7996L72.6678 40.1913C72.2923 39.6084 71.5978 38.602 71.3359 38.005L76.9757 38Z" fill="white"/>
<path d="M71.3359 53C73.1369 53.6817 75.3073 54.6789 77.0888 55.4716C76.6504 56.022 74.8709 57.6911 74.2965 58.2548C73.3947 59.1506 72.3925 60.1925 71.4238 61C71.3084 58.5247 71.5516 55.3491 71.3359 53Z" fill="white"/>
<path d="M76.9996 49C77.141 49.1595 77.0724 54.3544 77.0708 55C75.816 54.4819 74.4643 53.9856 73.187 53.4969C72.5461 53.2458 71.9716 53.0316 71.3359 52.7569C72.5161 51.8735 75.6962 49.761 76.9996 49Z" fill="white"/>
<path d="M76.8949 57C76.9023 57.0045 76.9103 57.0086 76.9172 57.0137C77.1929 57.2168 77.0543 61.3857 77.0518 62L71.4197 61.9999L71.3359 61.8993C71.4798 61.59 76.2533 57.552 76.8949 57Z" fill="white"/>
<path d="M64.3327 48C64.5009 48.1513 64.4075 51.523 64.3998 52C63.1879 51.6223 61.5961 51.2324 60.3468 50.8966C59.7984 50.7281 59.222 50.5965 58.6797 50.4101C59.0689 50.1087 63.6701 48.2202 64.3327 48Z" fill="white"/>
<path d="M65.6058 48C65.9681 48.1453 69.6653 52.3968 70.1853 52.9943L65.5841 53C65.5801 51.3333 65.5873 49.6665 65.6058 48Z" fill="white"/>
<path d="M67.0754 47.0457C67.7198 46.9626 69.4587 47.0182 70.1824 47.0184L70.1853 52C69.8576 51.7234 69.6295 51.4525 69.3401 51.1237C68.1769 49.9526 66.6716 48.3322 65.583 47.0915C66.0941 47.1001 66.5667 47.0738 67.0754 47.0457Z" fill="white"/>
<path d="M223.745 37H226.011C227.081 37.2105 227.967 37.2166 229.15 37.4819C232.901 38.35 236.115 40.3857 238.136 43.1732C239.075 44.4426 239.806 45.8994 240.124 47.375C240.22 47.8196 240.348 49.0119 240.471 49.3391V50.8477C240.253 51.6881 240.241 52.5481 239.952 53.3981C238.838 56.6724 236.641 59.1741 233.254 61.0005C231.756 61.8102 230.094 62.3829 228.35 62.6903C227.914 62.769 226.732 62.9171 226.427 63H223.555C223.275 62.9207 222.025 62.7636 221.607 62.6895C219.924 62.3954 218.314 61.8602 216.848 61.1076C213.325 59.3081 210.803 56.4057 209.843 53.0432C207.778 45.8593 213.22 38.502 222.004 37.2488C222.592 37.1648 223.163 37.1166 223.745 37Z" fill="white"/>
<path d="M232.389 46C233.97 46.0206 235.773 46.8316 235.782 48.3364C235.8 51.05 236.664 53.5342 232.527 54C230.724 53.9699 229.023 53.1821 229.017 51.4825C229.008 48.8772 228.306 46.2728 232.389 46Z" fill="#16181C"/>
<path d="M232.057 47.003C234.629 46.9226 234.798 48.4666 234.697 50.1084C234.604 51.636 234.921 52.6171 232.663 52.9889C230.411 53.1468 230.021 51.5923 230.133 50.1679C230.257 48.5986 229.782 47.5213 232.057 47.003Z" fill="white"/>
<path d="M220.911 46.027C222.464 46.0406 224.096 45.9267 225.625 46.085C226.416 46.2046 227.233 46.678 227.497 47.3019C228.127 48.7904 227.557 49.7874 226.011 50.5998C226.606 51.6054 227.286 52.9202 227.815 53.9574C227.067 53.9835 226.579 54.1535 226.265 53.564C225.849 52.9058 225.127 51.4499 224.798 50.754L222.231 50.7533L222.224 53.9549L220.912 53.9551L220.911 46.027Z" fill="#16181C"/>
<path d="M223.76 47.0045C225.329 46.9505 227.282 47.3638 226.477 49.2237C226.298 49.6378 225.538 49.8903 225 49.9999L222.062 50L222.066 47.01L223.76 47.0045Z" fill="white"/>
<path d="M214.008 46.0609C216.133 46.0818 219.81 45.3507 219.76 48.4495C219.756 49.0781 219.49 49.6786 219.022 50.1162C218.226 50.8553 217.422 50.8079 216.42 50.7919L215.083 50.7918L215.082 53.9897L214.009 54L214.008 46.0609Z" fill="#16181C"/>
<path d="M215.675 47.0204C217.086 46.9938 218.937 46.7483 218.56 49.0208C218.494 49.4275 218.159 49.6761 217.85 49.8719C217.313 50.0502 215.839 49.9919 215.196 49.9872C215.204 49.3021 215.038 47.4857 215.346 47.0502L215.675 47.0204Z" fill="white"/>
<path d="M58.6797 51C60.5537 51.5172 62.5869 52.1724 64.4326 52.6339L60.7923 57.9911C60.2286 58.8197 59.3067 60.2439 58.6797 61V51Z" fill="white"/>
<path d="M64.3697 53C64.4817 55.8512 64.4103 59.1113 64.4083 61.9944C62.5122 61.9924 60.5718 62.0121 58.6797 61.9875V61.8965C59.5443 60.6517 60.4935 59.0868 61.314 57.7948C62.3081 56.2295 63.4193 54.5774 64.3697 53Z" fill="white"/>
<path d="M64.3777 39C64.4459 41.5261 64.449 44.4704 64.3956 47C62.4965 46.0472 60.5912 45.1048 58.6797 44.1731V44.0923C59.1486 43.7647 60.3826 42.608 60.8547 42.1743C62.0103 41.1127 63.234 40.0624 64.3777 39Z" fill="white"/>
<path d="M58.6797 45C60.6126 45.7394 62.55 46.8292 64.4326 47.5804C63.3418 48.1585 61.9156 48.6725 60.7491 49.1678C60.3511 49.3368 59.0498 49.8905 58.6797 50V45Z" fill="white"/>
<path d="M58.6797 38L64.4326 38.018C62.6639 39.6587 60.5417 41.4089 58.6797 43V38Z" fill="white"/>
</svg>
