<svg width="279" height="100" viewBox="0 0 279 100" fill="none" xmlns="http://www.w3.org/2000/svg">
<path d="M102.211 36.9759L109.419 36.971C113.516 36.9691 118.643 36.6064 121.876 39.4243C123.109 40.499 123.64 42.1723 123.64 43.7016C123.622 45.4841 122.836 47.189 121.451 48.4501C121.142 48.7309 120.801 48.9925 120.464 49.2459C122.34 50.1534 123.754 51.1478 124.341 53.0512C125.836 57.8968 122.644 61.9855 117.263 62.6561C116.751 62.7199 115.701 62.8197 115.245 62.9473H102.207L102.203 45.7782C102.203 42.971 102.117 39.7547 102.211 36.9759ZM107.792 58.9321C110.488 58.944 115.6 59.3827 117.749 57.9706C118.694 57.0371 118.966 56.3242 118.916 55.0562C118.767 51.2757 114.446 51.5464 111.497 51.5559L107.818 51.5711C107.787 53.9125 107.901 56.662 107.792 58.9321ZM107.797 47.7046C110.3 47.7197 114.732 48.1227 116.709 46.843C117.632 45.9917 117.833 45.4591 117.839 44.2836C117.856 40.505 113.396 41.0368 110.534 41.0359C109.607 41.0356 108.715 41.045 107.813 41.05C107.801 43.1068 107.891 45.7047 107.797 47.7046Z" fill="white"/>
<path d="M56.0323 36.976C58.3821 36.9751 61.0763 36.9165 63.3984 36.9787L69.5605 50.9477C70.6617 53.4308 72.0203 56.2896 73.0218 58.7741L75.9443 58.7847L75.946 62.9473H44.0386V58.7776L46.42 58.7792L52.9365 44.0183C53.8912 41.852 55.0089 39.073 56.0323 36.976ZM52.7027 58.7776L66.7123 58.7808C66.2566 57.4737 59.894 42.4424 59.656 42.2241C59.4276 42.9793 58.9545 44.0073 58.6366 44.7556L56.8781 48.8864C55.508 52.0989 54.1276 55.6181 52.7027 58.7776Z" fill="white"/>
<path d="M154.091 36.9912C155.956 36.9395 158.465 36.9309 160.336 36.9788C163.37 41.1076 166.434 45.2175 169.53 49.3084C169.531 45.3433 169.433 40.9093 169.537 36.9774L175.164 36.9758C175.077 38.0222 175.106 39.367 175.132 40.4248C175.203 43.3667 175.027 46.4251 175.154 49.3548L184.378 36.9757C186.388 36.975 188.545 36.9376 190.542 36.9827C188.173 39.9666 185.971 43.1266 183.609 46.1187C182.796 47.1478 182.016 48.308 181.168 49.2999L187.881 58.53C188.645 59.5813 190.46 61.9316 191.071 62.9473H184.744C181.548 58.6388 178.394 54.1477 175.154 49.8896C175.096 51.3705 175.134 53.053 175.134 54.5474L175.144 62.9473H169.537C169.489 61.5412 169.532 59.9446 169.532 58.5148L169.533 49.9227C166.382 53.9925 162.954 58.7604 159.955 62.9473H153.679C156.445 58.927 159.484 55.0087 162.3 51.0119C162.704 50.4389 163.153 49.8164 163.593 49.271C161.476 46.5914 159.38 43.8994 157.301 41.1954C156.583 40.27 154.63 37.8797 154.091 36.9912Z" fill="white"/>
<path d="M145.854 36.9741C147.545 36.9742 149.492 36.9298 151.161 36.9816L151.167 54.0094C151.167 56.75 151.29 60.2903 151.142 62.9473H145.853C145.747 56.7761 145.83 50.2561 145.858 44.0689C145.494 44.4582 144.661 45.6804 144.311 46.1741L141.4 50.2867C138.423 54.496 135.364 58.7176 132.434 62.9473H127.111L127.106 45.7748C127.106 42.9281 127.034 39.805 127.112 36.9776C128.84 36.9755 130.708 36.9403 132.423 36.9803C132.427 43.2427 132.342 49.6554 132.431 55.8999L139.288 46.2152C141.462 43.1491 143.642 40.011 145.854 36.9741Z" fill="white"/>
<path d="M78.7352 36.9747L99.4699 36.9762C99.4705 38.3473 99.4992 39.8029 99.468 41.1667C94.6429 41.1662 89.0765 41.0534 84.3147 41.189C84.2516 43.2577 84.3957 45.5779 84.2987 47.5729C89.0488 47.5833 93.8948 47.5289 98.632 47.5828L98.6337 51.7525L89.7005 51.7571C87.9875 51.7567 86.0004 51.7156 84.3182 51.7931C84.2326 54.0659 84.328 56.4732 84.3043 58.7612C89.3071 58.8715 94.4546 58.7232 99.4713 58.785L99.472 62.9473H78.7342C78.6266 57.6811 78.7186 52.1587 78.7199 46.8747L78.721 40.3637C78.7213 39.3297 78.6732 37.968 78.7352 36.9747Z" fill="white"/>
<path d="M217.108 36.9756V62.9473H212.034C211.919 59.4086 212.026 55.3609 212.025 51.7805C208.895 51.6707 205.682 51.8127 202.545 51.7561C201.465 51.7366 200.312 51.7455 199.235 51.7897L199.23 62.9473H193.623C193.61 61.977 193.614 60.991 193.622 60.0205C193.683 52.3465 193.53 44.6514 193.634 36.9794C195.422 36.9344 197.415 36.9752 199.219 36.9758C199.32 40.3826 199.235 44.1456 199.23 47.5759L212.02 47.5788L212.039 36.979C213.66 36.9378 215.472 36.9751 217.108 36.9756Z" fill="white"/>
</svg>
