<svg width="298" height="100" viewBox="0 0 298 100" fill="none" xmlns="http://www.w3.org/2000/svg">
<path d="M138.865 30.3422C140.811 30.1574 142.765 30.6096 144.367 31.615C146.164 32.7464 147.375 34.4773 147.73 36.4172C147.906 37.3769 147.842 39.409 147.842 40.4426L147.84 47.3903L147.839 55.6051C147.841 56.7868 147.832 57.9763 147.849 59.1569C147.919 64.0606 143.893 68.3912 138.411 69.1317C135.475 69.5293 132.483 68.8704 130.09 67.2986C128.972 66.5506 128.018 65.6234 127.278 64.5642C126.619 63.6163 126.007 62.2762 125.49 61.2292L123.129 56.4575L120.992 52.2128C119.673 49.5797 118.774 47.566 118.82 44.6099C118.837 43.2423 119.051 41.8823 119.459 40.564C120.059 38.6663 121.112 37.4701 120.774 35.462C120.532 34.0458 119.659 32.7778 118.354 31.9472C115.754 30.2636 112.015 30.8754 110.181 33.2232C109.321 34.3435 108.963 35.7128 109.18 37.0582C109.362 38.1706 110.812 40.8421 111.379 41.9902L117.234 53.9214L118.99 57.4865C119.449 58.4211 120.247 59.9293 120.423 60.8899C120.764 62.784 120.252 64.7222 119 66.2797C117.563 68.0561 115.728 68.9366 113.349 69.2722C111.197 69.4169 109.302 69.0427 107.548 67.8653C105.832 66.7234 104.7 65.0127 104.406 63.117C104.241 62.0355 104.317 59.8837 104.319 58.6973L104.321 50.9713L104.317 43.4124C104.315 42.3152 104.303 41.2179 104.321 40.1209C104.398 35.2421 108.495 31.1259 113.899 30.4787C116.852 30.1067 119.849 30.8143 122.212 32.4416C123.289 33.1885 124.205 34.1054 124.913 35.1471C125.5 36.01 126.023 37.1485 126.489 38.0893L128.536 42.2103L130.935 47.0201C131.602 48.3533 132.283 49.5887 132.733 51.001C133.168 52.4132 133.366 53.8758 133.321 55.34C133.281 56.6436 133.054 57.9371 132.646 59.1887C132.041 61.0224 131.052 62.1887 131.375 64.192C131.597 65.5571 132.421 66.7859 133.663 67.6034C134.973 68.4505 136.607 68.7909 138.2 68.5491C139.74 68.3259 141.049 67.5064 141.958 66.3968C144.345 63.487 142.146 60.4515 140.777 57.6721L134.633 45.1541C134.144 44.1467 133.649 43.1418 133.148 42.1395C132.573 40.9868 132.001 40.001 131.746 38.7471C131.148 35.8069 132.771 32.7787 135.646 31.2803C136.711 30.7252 137.639 30.5132 138.865 30.3422Z" fill="white"/>
<path d="M158.335 30.3283C163.491 29.95 167.551 33.6616 166.988 38.313C166.847 39.4838 165.9 41.0125 165.319 42.0785L163.123 46.0306L156.485 58.106C156.233 58.57 155.96 59.025 155.71 59.489C154.928 60.9454 153.828 62.3098 154.352 64.004C154.638 64.9145 155.318 65.6849 156.241 66.1431C157.083 66.5535 158.061 66.6799 158.997 66.4988C159.795 66.3395 163.245 64.7526 164.116 64.373L178.147 58.2292L181.679 56.6767C185.129 55.1471 187.316 54.3927 190.976 56.1713C191.11 56.2393 191.241 56.3115 191.369 56.3884C193.119 57.4567 194.321 59.1052 194.711 60.9698C195.104 62.8248 194.632 64.7431 193.407 66.279C192.197 67.8145 190.359 68.8593 188.293 69.1858C187.209 69.3478 185.107 69.2862 183.927 69.2856L176.225 69.2851L167.058 69.2856C165.466 69.2878 162.833 69.3653 161.385 69.1603C159.542 68.897 157.794 68.2493 156.282 67.2697C153.68 65.5899 151.94 63.0441 151.452 60.2042C151.236 58.9825 151.308 56.7967 151.308 55.4907L151.306 47.8361L151.305 40.4169C151.305 39.4391 151.247 37.2474 151.384 36.365C151.569 35.1868 152.078 34.0684 152.867 33.111C154.242 31.4433 156.093 30.6348 158.335 30.3283Z" fill="white"/>
<path d="M182.668 34.3131C186.222 34.1288 186.931 36.2178 186.811 38.5646C186.748 39.7774 186.846 41.069 186.792 42.3016L184.204 42.2916C184.157 41.1396 184.444 37.3778 183.809 36.6075C183.609 36.3638 183.303 36.2132 182.947 36.1628C182.312 36.0729 181.631 36.1699 181.114 36.4791C180.033 37.297 180.349 38.7418 180.31 39.8266C180.281 40.6101 180.38 41.4368 180.3 42.2174L180.292 42.2891C179.5 42.3142 178.541 42.2935 177.731 42.2976C177.534 40.6487 177.789 38.6971 177.691 37.0187C177.646 36.2514 177.664 35.2535 177.732 34.494C178.341 34.4881 178.867 34.4858 179.479 34.5125C179.717 34.8796 179.818 35.0776 179.995 35.4687C180.766 34.7687 181.514 34.4529 182.668 34.3131Z" fill="white"/>
<path d="M191.272 31.314C191.492 31.297 191.484 31.293 191.697 31.3333C191.877 31.5653 191.775 33.2411 191.735 33.5932C192.722 33.603 193.819 33.6176 194.797 33.563C194.799 34.0395 194.901 35.0124 194.615 35.3527C194.23 35.5722 192.417 35.4526 191.808 35.4498C191.84 36.4008 191.463 39.193 192.234 39.8698C192.765 40.3362 194.08 40.1694 194.811 40.2088C194.861 40.8197 194.856 41.6988 194.808 42.3018L193.755 42.2883C192.344 42.2945 190.951 42.2795 189.869 41.4251C188.639 40.4537 188.84 38.9124 188.838 37.632C188.829 36.9067 188.83 36.1814 188.84 35.4561C188.438 35.4576 187.037 35.5285 186.823 35.3262C186.901 34.7785 188.215 33.7984 188.715 33.3849C189.519 32.7199 190.387 31.9049 191.272 31.314Z" fill="white"/>
<path d="M174.05 34.3018L174.138 34.3215C174.314 34.5755 174.124 40.9276 174.192 41.7285C174.202 41.8365 174.162 42.1604 174.098 42.2624C173.78 42.3224 172.5 42.2959 172.091 42.2962C172.011 42.2897 172.055 42.3027 171.973 42.2262C171.899 41.9154 171.929 40.2584 171.928 39.8373L171.937 34.3202C172.635 34.3258 173.356 34.3446 174.05 34.3018Z" fill="white"/>
<path d="M171.936 30.3496C172.656 30.295 173.464 30.3403 174.214 30.3018C174.204 31.135 174.239 32.5136 174.18 33.277C173.473 33.3164 172.658 33.2955 171.941 33.3013C171.911 32.3023 171.925 31.3492 171.936 30.3496Z" fill="white"/>
</svg>
