<svg width="135" height="38" viewBox="0 0 135 38" fill="none" xmlns="http://www.w3.org/2000/svg">
<g clip-path="url(#clip0_478_2915)">
<path d="M1.5951 18.4285H0V37.8694H1.5951V18.4285Z" fill="#C7CBD1"/>
<path d="M7.70106 22.2493H6.10596V37.8377H7.70106V22.2493Z" fill="#C7CBD1"/>
<path d="M13.7147 25.748H12.1196V37.8374H13.7147V25.748Z" fill="#C7CBD1"/>
<path d="M19.7985 0H18.2034V37.8408H19.7985V0Z" fill="#C7CBD1"/>
<path d="M25.8439 3.7793H24.2488V37.8376H25.8439V3.7793Z" fill="#C7CBD1"/>
<path d="M31.9276 7.27832H30.3325V37.8375H31.9276V7.27832Z" fill="#C7CBD1"/>
<path d="M37.973 11.1406H36.3779V37.8409H37.973V11.1406Z" fill="#C7CBD1"/>
<path d="M61.1211 15.8906H53.7805L52.1981 19.4025H50.7498L56.7729 6.25293H58.1478L64.171 19.4025H62.7035L61.1211 15.8906ZM60.6139 14.7635L57.4524 7.69843L54.2909 14.7635H60.6171H60.6139Z" fill="#C7CBD1"/>
<path d="M75.257 7.45352H70.628V19.4027H69.253V7.45352H64.6208V6.25H75.257V7.45352Z" fill="#C7CBD1"/>
<path d="M88.6206 10.7614C88.6206 13.56 86.5884 15.2507 83.2355 15.2507H79.6976V19.4025H78.3035V6.25293H83.2355C86.5852 6.25293 88.6206 7.94359 88.6206 10.7614ZM87.2265 10.7614C87.2265 8.65678 85.8324 7.45326 83.1972 7.45326H79.6976V14.028H83.1972C85.8324 14.028 87.2265 12.8245 87.2265 10.7582V10.7614Z" fill="#C7CBD1"/>
<path d="M92.0852 6.25293H93.4602V17.1483L101.892 6.25293H103.152V19.4025H101.777V8.52624L93.3453 19.4025H92.0852V6.25293Z" fill="#C7CBD1"/>
<path d="M118.548 6.25293L112.563 17.317C111.699 18.9313 110.493 19.6477 109.194 19.6477C108.668 19.6477 108.123 19.5171 107.577 19.2911L107.973 18.1639C108.406 18.3327 108.821 18.4282 109.214 18.4282C110.005 18.4282 110.738 18.0334 111.341 17.0177L111.718 16.3778L106.371 6.25293H107.858L112.452 15.1583L117.157 6.25293H118.551H118.548Z" fill="#C7CBD1"/>
<path d="M135 6.25293V19.4025H133.663V8.88284L128.486 17.7309H127.825L122.647 8.94015V19.4057H121.311V6.25293H122.459L128.182 16.0021L133.848 6.25293H134.997H135Z" fill="#C7CBD1"/>
<path d="M52.8203 24.72L56.5656 29.9225L60.2917 24.72H61.9283L57.4301 31.0337L62.2856 37.8727H60.649L56.5656 32.2181L52.4821 37.8727H50.8806L55.717 31.091L51.2188 24.7232H52.8203V24.72Z" fill="#C7CBD1"/>
<path d="M63.9062 31.2946C63.9062 27.4612 66.8444 24.6052 70.8322 24.6052C74.8199 24.6052 77.7422 27.4421 77.7422 31.2946C77.7422 35.1472 74.788 37.984 70.8322 37.984C66.8763 37.984 63.9062 35.1281 63.9062 31.2946ZM76.3481 31.2946C76.3481 28.1585 73.9937 25.847 70.8322 25.847C67.6707 25.847 65.278 28.1585 65.278 31.2946C65.278 34.4308 67.6484 36.7423 70.8322 36.7423C74.016 36.7423 76.3481 34.4308 76.3481 31.2946Z" fill="#C7CBD1"/>
<path d="M91.6322 24.72V37.8695H90.2573V25.9203H83.896L83.746 30.3173C83.5578 35.5771 82.7284 38.0001 80.3389 38.0001C80.0007 38.0001 79.6817 37.9619 79.2861 37.8695L79.3978 36.631C79.6434 36.6883 79.8125 36.7074 80.0199 36.7074C81.6947 36.7074 82.336 34.7907 82.5051 30.3587L82.6933 24.7232H91.6354L91.6322 24.72Z" fill="#C7CBD1"/>
<path d="M106.805 24.72V37.8695H105.43V25.9203H99.0686L98.9187 30.3173C98.7304 35.5771 97.901 38.0001 95.5115 38.0001C95.1734 38.0001 94.8543 37.9619 94.4587 37.8695L94.5704 36.631C94.816 36.6883 94.9851 36.7074 95.1925 36.7074C96.8674 36.7074 97.5086 34.7907 97.6777 30.3587L97.8659 24.7232H106.808L106.805 24.72Z" fill="#C7CBD1"/>
</g>
<defs>
<clipPath id="clip0_478_2915">
<rect width="135" height="38" fill="white"/>
</clipPath>
</defs>
</svg>
