<svg display="none" xmlns="http://www.w3.org/2000/svg">

    <symbol id="lock-icon" viewBox="0 0 22 22">
        <path
            d="M16.5451 7.86809C16.6363 7.86809 16.7237 7.83188 16.7882 7.76741C16.8527 7.70295 16.8889 7.61551 16.8889 7.52434V6.57662C16.8889 3.32956 14.2468 0.6875 10.9998 0.6875C7.75271 0.6875 5.11064 3.32956 5.11064 6.57662V9.58169H3.08252C2.99135 9.58169 2.90392 9.6179 2.83945 9.68237C2.77499 9.74683 2.73877 9.83427 2.73877 9.92544V20.9688C2.73877 21.0599 2.77499 21.1474 2.83945 21.2118C2.90392 21.2763 2.99135 21.3125 3.08252 21.3125H18.917C19.0082 21.3125 19.0956 21.2763 19.1601 21.2118C19.2246 21.1474 19.2608 21.0599 19.2608 20.9688V9.92544C19.2608 9.83427 19.2246 9.74683 19.1601 9.68237C19.0956 9.6179 19.0082 9.58169 18.917 9.58169H5.79814V6.57662C5.79814 3.70837 8.13152 1.375 10.9998 1.375C13.868 1.375 16.2014 3.70837 16.2014 6.57662V7.52434C16.2014 7.61551 16.2376 7.70295 16.3021 7.76741C16.3665 7.83188 16.454 7.86809 16.5451 7.86809ZM18.5733 20.625H3.42627V10.2692H18.5733V20.625Z" />
        <path
            d="M10.656 15.8317V17.6329C10.656 17.7241 10.6922 17.8115 10.7567 17.876C10.8212 17.9405 10.9086 17.9767 10.9998 17.9767C11.0909 17.9767 11.1784 17.9405 11.2428 17.876C11.3073 17.8115 11.3435 17.7241 11.3435 17.6329V15.8317C12.0162 15.6749 12.5205 15.0737 12.5205 14.3539C12.5205 13.5155 11.8385 12.8335 10.9998 12.8335C10.161 12.8335 9.479 13.5155 9.479 14.3539C9.479 15.0737 9.98294 15.6753 10.656 15.8317ZM10.9998 13.5207C11.4593 13.5207 11.833 13.8943 11.833 14.3536C11.833 14.8128 11.4593 15.1865 10.9998 15.1865C10.5402 15.1865 10.1665 14.8128 10.1665 14.3536C10.1665 13.8943 10.5402 13.5207 10.9998 13.5207Z" />
    </symbol>

    <symbol id="location-icon" viewBox="0 0 22 22">
        <path
            d="M10.9999 21.6562C10.9396 21.6563 10.8803 21.6404 10.828 21.6102C10.7757 21.58 10.7323 21.5366 10.7021 21.4844C10.3584 20.8884 9.91711 20.1618 9.40621 19.3205C7.05711 15.4494 3.83789 10.1484 3.83789 7.50578C3.83789 3.55652 7.05066 0.34375 10.9999 0.34375C14.9492 0.34375 18.162 3.55652 18.162 7.50578C18.162 10.1484 14.9436 15.4498 12.5936 19.3222C12.0845 20.1627 11.6419 20.8884 11.2977 21.4844C11.2675 21.5366 11.2241 21.58 11.1718 21.6102C11.1196 21.6404 11.0603 21.6563 10.9999 21.6562ZM10.9999 1.03125C7.43008 1.03125 4.52539 3.93551 4.52539 7.50578C4.52539 9.955 7.81637 15.3764 9.99402 18.9634C10.37 19.5834 10.709 20.1412 10.9999 20.6323C11.2908 20.1412 11.6294 19.5834 12.0058 18.9638C14.1835 15.3768 17.4745 9.95586 17.4745 7.50578C17.4745 3.93551 14.5698 1.03125 10.9999 1.03125Z" />
        <path
            d="M11 10.6482C10.3675 10.6482 9.74928 10.4606 9.22342 10.1092C8.69755 9.75787 8.28769 9.25845 8.04566 8.67414C7.80363 8.08983 7.74031 7.44687 7.86369 6.82657C7.98708 6.20627 8.29163 5.63649 8.73884 5.18928C9.18605 4.74207 9.75584 4.43752 10.3761 4.31413C10.9964 4.19075 11.6394 4.25407 12.2237 4.4961C12.808 4.73813 13.3074 5.14799 13.6588 5.67386C14.0102 6.19972 14.1977 6.81797 14.1977 7.45042C14.1968 8.29823 13.8596 9.11106 13.2601 9.71056C12.6606 10.3101 11.8478 10.6472 11 10.6482ZM11 4.94062C10.5035 4.94062 10.0181 5.08785 9.60533 5.3637C9.19251 5.63954 8.87077 6.03161 8.68079 6.49032C8.49081 6.94904 8.44112 7.45378 8.53801 7.94073C8.63491 8.42768 8.87402 8.87496 9.22513 9.22601C9.57624 9.57705 10.0236 9.81609 10.5105 9.9129C10.9975 10.0097 11.5022 9.95994 11.9609 9.76988C12.4196 9.57982 12.8116 9.25801 13.0874 8.84515C13.3632 8.43229 13.5103 7.94692 13.5102 7.45042C13.5094 6.78495 13.2447 6.14697 12.7741 5.67645C12.3035 5.20593 11.6655 4.9413 11 4.94062Z" />
    </symbol>

    <symbol id="arrow-top" viewBox="0 0 22 22">
        <path d="M19 14L11.2058 7.5L3.41152 14" />
    </symbol>
    <symbol id="arrow-bottom" viewBox="0 0 22 22">
        <path d="M3 8L10.7943 14.5L18.5885 8" />
    </symbol>

    <symbol id="vk-icon" viewBox="0 0 40 40">
        <path fill-rule="evenodd" clip-rule="evenodd"
            d="M31.6713 13.9605C31.8403 13.4322 31.6713 13.0439 30.8668 13.0439H28.2065C27.5301 13.0439 27.2182 13.3793 27.0491 13.7491C27.0491 13.7491 25.6962 16.8397 23.7797 18.8472C23.1597 19.4283 22.8778 19.6132 22.5396 19.6132C22.3705 19.6132 22.1257 19.4283 22.1257 18.9001V13.9605C22.1257 13.3265 21.9294 13.0439 21.3657 13.0439H17.1852C16.7625 13.0439 16.5083 13.3382 16.5083 13.6171C16.5083 14.218 17.4665 14.3566 17.5652 16.0472V19.7189C17.5652 20.5239 17.4101 20.6699 17.0719 20.6699C16.1701 20.6699 13.9763 17.5655 12.6752 14.0133C12.4202 13.3228 12.1644 13.0439 11.4845 13.0439H8.82422C8.06414 13.0439 7.91211 13.3793 7.91211 13.7491C7.91211 14.4095 8.81401 17.685 12.1115 22.017C14.3099 24.9755 17.4071 26.5792 20.2256 26.5792C21.9166 26.5792 22.1258 26.223 22.1258 25.6094V23.3735C22.1258 22.6611 22.286 22.5189 22.8215 22.5189C23.216 22.5189 23.8925 22.7038 25.4708 24.1302C27.2746 25.8208 27.5719 26.5792 28.5865 26.5792H31.2469C32.0069 26.5792 32.387 26.223 32.1677 25.5201C31.9278 24.8195 31.0666 23.803 29.9239 22.5981C29.3038 21.9114 28.3738 21.1718 28.0919 20.8019C27.6973 20.3265 27.8101 20.1151 28.0919 19.6925C28.0919 19.6925 31.3331 15.4133 31.6713 13.9605Z" />
    </symbol>

    <symbol id="tg-icon" viewBox="0 0 40 40">
        <path
            d="M29.9393 13.4561L27.0608 27.0466C26.8461 28.0037 26.2951 28.2193 25.499 27.7872L21.1813 24.5756L19.0675 26.6135C18.8538 26.83 18.6391 27.0466 18.1489 27.0466L18.4861 22.5675L26.5402 15.1864C26.8765 14.8463 26.4481 14.7227 26.0196 15.0015L16.0057 21.3632L11.687 20.0353C10.7379 19.7268 10.7379 19.0772 11.9017 18.646L28.6834 12.0668C29.5099 11.8196 30.2148 12.2527 29.9393 13.4561Z"/>
    </symbol>

    <symbol id="logo-developer" viewBox="0 0 125 31">
        <g>
            <path d="M124.848 19.9631H114.597V18.2548H124.848V19.9631Z" />
            <path
                d="M124.848 9.75205V11.445H123.935C124.642 12.0502 125 12.8546 125 13.8658C125 14.6088 124.795 15.237 124.391 15.7502C123.98 16.2635 123.417 16.5239 122.687 16.5239C121.887 16.5239 121.286 16.2482 120.876 15.689C120.464 15.1297 120.259 14.402 120.259 13.4981C120.259 12.7703 120.366 12.0808 120.571 11.4374H120.434C119.917 11.4374 119.528 11.5982 119.255 11.9123C118.981 12.2264 118.844 12.686 118.844 13.2759C118.844 13.9577 118.996 14.6625 119.308 15.4132L117.946 15.8805C117.535 14.9535 117.329 14.0113 117.329 13.0384C117.329 11.9583 117.603 11.1386 118.143 10.587C118.684 10.0355 119.46 9.75971 120.457 9.75971H124.855L124.848 9.75205ZM122.169 11.4067H121.751C121.553 11.9123 121.454 12.4869 121.454 13.115C121.454 13.6513 121.56 14.0726 121.766 14.3713C121.971 14.6701 122.261 14.8233 122.633 14.8233C122.968 14.8233 123.235 14.6854 123.432 14.4097C123.63 14.1339 123.729 13.7891 123.729 13.3755C123.729 12.8009 123.585 12.326 123.295 11.9583C123.006 11.5829 122.633 11.3991 122.169 11.3991V11.4067Z" />
            <path
                d="M125 3.47787C125 4.50439 124.566 5.34704 123.691 6.00585H124.84V7.71415H114.59V6.00585H118.661C117.733 5.34704 117.268 4.50439 117.268 3.47787C117.268 2.53564 117.618 1.72362 118.319 1.03417C119.019 0.344724 119.962 0 121.149 0C122.337 0 123.257 0.344724 123.95 1.03417C124.65 1.72362 125 2.53564 125 3.47787ZM123.524 3.87622C123.524 3.27105 123.303 2.76546 122.862 2.35945C122.42 1.94578 121.842 1.7466 121.119 1.7466C120.396 1.7466 119.848 1.95344 119.407 2.36711C118.965 2.78077 118.745 3.28636 118.745 3.87622C118.745 4.46608 118.973 4.97935 119.422 5.40833C119.871 5.83732 120.449 6.05182 121.149 6.05182C121.85 6.05182 122.413 5.83732 122.854 5.40833C123.295 4.97935 123.524 4.46608 123.524 3.87622Z" />
            <path
                d="M0 29.9296V25.2107H0.821868V25.8159C1.14148 25.3638 1.54481 25.1341 2.03946 25.1341C2.49605 25.1341 2.88415 25.3026 3.21899 25.6474C3.55382 25.9844 3.71362 26.4518 3.71362 27.0262C3.71362 27.6008 3.54621 28.0528 3.21899 28.3975C2.89176 28.7344 2.49605 28.9108 2.03946 28.9108C1.54481 28.9108 1.14148 28.6962 0.821868 28.2749V29.9372H0V29.9296ZM1.8492 28.1907C2.13837 28.1907 2.3819 28.0834 2.57975 27.8688C2.77761 27.6544 2.87654 27.371 2.87654 27.0185C2.87654 26.6662 2.77761 26.3981 2.57975 26.1835C2.3819 25.9691 2.13837 25.8618 1.8492 25.8618C1.56003 25.8618 1.31651 25.9691 1.11104 26.1912C0.905576 26.4135 0.799038 26.6892 0.799038 27.0338C0.799038 27.3787 0.905576 27.6467 1.11104 27.8688C1.31651 28.0834 1.56764 28.1983 1.8492 28.1983V28.1907Z" />
            <path
                d="M8.26435 28.8265H7.4501V28.3821C7.16091 28.727 6.77281 28.9031 6.28578 28.9031C5.92812 28.9031 5.62372 28.8036 5.3802 28.6044C5.13669 28.4051 5.00732 28.1294 5.00732 27.7694C5.00732 27.3787 5.1443 27.0876 5.41064 26.8885C5.677 26.6892 6.02705 26.5896 6.46841 26.5896C6.81847 26.5896 7.1533 26.6432 7.46531 26.7428V26.6739C7.46531 26.4211 7.38921 26.2296 7.23702 26.0994C7.08482 25.9691 6.86414 25.9001 6.58256 25.9001C6.25535 25.9001 5.9129 25.9767 5.55524 26.1301L5.33455 25.4636C5.77591 25.2645 6.23251 25.1647 6.70432 25.1647C7.22941 25.1647 7.61751 25.2951 7.88386 25.5631C8.1502 25.8312 8.27957 26.2067 8.27957 26.6968V28.8419L8.26435 28.8265ZM7.46531 27.5165V27.3097C7.2218 27.2102 6.94785 27.1642 6.64345 27.1642C6.38472 27.1642 6.17924 27.2178 6.03466 27.3174C5.89006 27.4169 5.81397 27.5625 5.81397 27.7388C5.81397 27.8996 5.88245 28.0298 6.01182 28.1294C6.1412 28.229 6.30861 28.2749 6.50647 28.2749C6.78042 28.2749 7.00872 28.206 7.19136 28.0605C7.37399 27.9226 7.45771 27.7388 7.45771 27.5089L7.46531 27.5165Z" />
            <path
                d="M11.1485 28.9108C10.5321 28.9108 10.007 28.7268 9.57321 28.3592L9.96133 27.8075C10.2962 28.0988 10.6767 28.2366 11.0952 28.2366C11.2854 28.2366 11.4453 28.1907 11.5746 28.0988C11.704 28.0069 11.7725 27.8841 11.7725 27.7386C11.7725 27.6008 11.7116 27.4935 11.5822 27.4093C11.4529 27.325 11.2778 27.2867 11.0419 27.2867H10.6005V26.6892H11.0419C11.2322 26.6892 11.3844 26.6432 11.4985 26.559C11.6127 26.4747 11.6736 26.3598 11.6736 26.2218C11.6736 26.0993 11.6203 25.9997 11.5061 25.9231C11.392 25.8465 11.255 25.8082 11.08 25.8082C10.6767 25.8082 10.3418 25.9308 10.0603 26.1759L9.69497 25.6551C10.0907 25.3102 10.5777 25.1341 11.1561 25.1341C11.5518 25.1341 11.8714 25.226 12.1225 25.4098C12.3737 25.5938 12.4954 25.8235 12.4954 26.1069C12.4954 26.49 12.3052 26.7658 11.9323 26.9266C12.366 27.0798 12.5867 27.371 12.5867 27.8075C12.5867 28.1217 12.4498 28.3821 12.1834 28.5966C11.9171 28.8112 11.567 28.9184 11.1409 28.9184L11.1485 28.9108Z" />
            <path
                d="M14.1315 29.9296V25.2107H14.9534V25.8159C15.273 25.3638 15.6763 25.1341 16.171 25.1341C16.6276 25.1341 17.0157 25.3026 17.3505 25.6474C17.6853 25.9844 17.8452 26.4518 17.8452 27.0262C17.8452 27.6008 17.6777 28.0528 17.3505 28.3975C17.0233 28.7344 16.6276 28.9108 16.171 28.9108C15.6763 28.9108 15.273 28.6962 14.9534 28.2749V29.9372H14.1315V29.9296ZM15.9807 28.1907C16.2699 28.1907 16.5134 28.0834 16.7113 27.8688C16.9091 27.6544 17.0081 27.371 17.0081 27.0185C17.0081 26.6662 16.9091 26.3981 16.7113 26.1835C16.5134 25.9691 16.2699 25.8618 15.9807 25.8618C15.6915 25.8618 15.448 25.9691 15.2426 26.1912C15.0371 26.4135 14.9306 26.6892 14.9306 27.0338C14.9306 27.3787 15.0371 27.6467 15.2426 27.8688C15.448 28.0834 15.6992 28.1983 15.9807 28.1983V28.1907Z" />
            <path
                d="M22.3958 28.8265H21.5815V28.3821C21.2924 28.727 20.9043 28.9031 20.4172 28.9031C20.0596 28.9031 19.7552 28.8036 19.5118 28.6044C19.2681 28.4051 19.1388 28.1294 19.1388 27.7694C19.1388 27.3787 19.2757 27.0876 19.5422 26.8885C19.8085 26.6892 20.1585 26.5896 20.6 26.5896C20.95 26.5896 21.2848 26.6432 21.5967 26.7428V26.6739C21.5967 26.4211 21.5206 26.2296 21.3685 26.0994C21.2163 25.9691 20.9956 25.9001 20.7141 25.9001C20.3868 25.9001 20.0444 25.9767 19.6868 26.1301L19.4661 25.4636C19.9074 25.2645 20.3639 25.1647 20.8359 25.1647C21.3609 25.1647 21.7491 25.2951 22.0154 25.5631C22.2817 25.8312 22.411 26.2067 22.411 26.6968V28.8419L22.3958 28.8265ZM21.5967 27.5165V27.3097C21.3533 27.2102 21.0793 27.1642 20.775 27.1642C20.5163 27.1642 20.3107 27.2178 20.1661 27.3174C20.0216 27.4169 19.9455 27.5625 19.9455 27.7388C19.9455 27.8996 20.0139 28.0298 20.1433 28.1294C20.2726 28.229 20.44 28.2749 20.638 28.2749C20.912 28.2749 21.1402 28.206 21.3228 28.0605C21.5054 27.9226 21.5891 27.7388 21.5891 27.5089L21.5967 27.5165Z" />
            <path
                d="M25.7975 28.911C25.2192 28.911 24.7627 28.727 24.4353 28.3593C24.1081 27.9915 23.9484 27.4707 23.9484 26.8042C23.9484 26.5898 23.9484 26.3981 23.9636 26.2373C23.9712 26.0765 23.994 25.9003 24.0321 25.7088C24.0625 25.5172 24.1158 25.3564 24.1766 25.2108C24.2451 25.073 24.3288 24.9351 24.4277 24.8049C24.5266 24.6745 24.6636 24.5673 24.8235 24.4754C24.9833 24.3835 25.1735 24.3222 25.3866 24.2763L27.35 23.8625L27.487 24.529L25.5235 24.9581C25.1964 25.027 24.9605 25.1496 24.8235 25.3257C24.6788 25.5019 24.6027 25.7242 24.5799 25.9846C24.6864 25.8008 24.8616 25.6399 25.0975 25.5095C25.3333 25.3717 25.6225 25.3104 25.965 25.3104C26.4292 25.3104 26.8324 25.4789 27.175 25.8237C27.5098 26.1607 27.6848 26.5821 27.6848 27.0723C27.6848 27.5626 27.5098 28.0145 27.1522 28.3747C26.7944 28.7346 26.3531 28.9186 25.8127 28.9186L25.7975 28.911ZM25.8127 28.1909C26.1172 28.1909 26.3683 28.0836 26.5585 27.869C26.7487 27.6546 26.8476 27.3942 26.8476 27.08C26.8476 26.7659 26.7487 26.5055 26.5433 26.2909C26.3379 26.0765 26.0944 25.9692 25.7975 25.9692C25.5007 25.9692 25.2496 26.0765 25.0594 26.2909C24.8692 26.5055 24.7703 26.7736 24.7703 27.0876C24.7703 27.4018 24.8692 27.6622 25.067 27.8767C25.2649 28.0913 25.5159 28.1985 25.8051 28.1985L25.8127 28.1909Z" />
            <path
                d="M30.9038 28.9108C30.3558 28.9108 29.9069 28.727 29.5417 28.3592C29.1763 27.9915 28.9937 27.5471 28.9937 27.0187C28.9937 26.49 29.1763 26.0458 29.5417 25.678C29.9069 25.3104 30.3634 25.1266 30.9114 25.1266C31.4592 25.1266 31.9083 25.3104 32.2735 25.678C32.6388 26.0458 32.8214 26.49 32.8214 27.0187C32.8214 27.5471 32.6388 27.9839 32.2735 28.3515C31.9083 28.7193 31.444 28.9031 30.8962 28.9031L30.9038 28.9108ZM30.919 28.1907C31.2462 28.1907 31.5125 28.0758 31.7105 27.8537C31.9083 27.6316 32.0072 27.3557 32.0072 27.0263C32.0072 26.6968 31.9007 26.4288 31.6953 26.199C31.4897 25.9769 31.2234 25.8618 30.9038 25.8618C30.5842 25.8618 30.3177 25.9769 30.1199 26.199C29.9221 26.4211 29.8232 26.6968 29.8232 27.0263C29.8232 27.3557 29.9297 27.6239 30.1351 27.846C30.3406 28.0758 30.6071 28.1907 30.919 28.1907Z" />
            <path d="M34.9826 28.8265V25.9155H33.8259V25.203H36.9688V25.9155H35.8121V28.8265H34.9826Z" />
            <path
                d="M38.3005 28.8265V25.203H39.1149V26.9344L40.6824 25.203H41.6489L40.2563 26.7275L41.7706 28.8265H40.7966L39.7083 27.3327L39.1225 27.9532V28.8265H38.3081H38.3005Z" />
            <path
                d="M45.9027 28.8265H45.0886V28.3821C44.7995 28.727 44.4112 28.9031 43.9243 28.9031C43.5665 28.9031 43.2621 28.8036 43.0187 28.6044C42.7752 28.4051 42.6458 28.1294 42.6458 27.7694C42.6458 27.3787 42.7828 27.0876 43.0491 26.8885C43.3154 26.6892 43.6656 26.5896 44.1069 26.5896C44.4569 26.5896 44.7919 26.6432 45.1038 26.7428V26.6739C45.1038 26.4211 45.0277 26.2296 44.8756 26.0994C44.7232 25.9691 44.5025 25.9001 44.221 25.9001C43.8938 25.9001 43.5513 25.9767 43.1937 26.1301L42.973 25.4636C43.4143 25.2645 43.871 25.1647 44.3428 25.1647C44.8679 25.1647 45.256 25.2951 45.5223 25.5631C45.7886 25.8312 45.9179 26.2067 45.9179 26.6968V28.8419L45.9027 28.8265ZM45.1038 27.5165V27.3097C44.8603 27.2102 44.5862 27.1642 44.2819 27.1642C44.0232 27.1642 43.8178 27.2178 43.6732 27.3174C43.5284 27.4169 43.4524 27.5625 43.4524 27.7388C43.4524 27.8996 43.5208 28.0298 43.6504 28.1294C43.7797 28.229 43.9471 28.2749 44.1449 28.2749C44.4188 28.2749 44.6471 28.206 44.8299 28.0605C45.0125 27.9226 45.0962 27.7388 45.0962 27.5089L45.1038 27.5165Z" />
            <path
                d="M51.9527 28.9108C51.4201 28.9108 50.9786 28.7268 50.6286 28.3668C50.2786 28.0069 50.096 27.5625 50.096 27.0415V27.0262C50.096 26.5054 50.271 26.061 50.6286 25.6933C50.9862 25.3255 51.4277 25.1341 51.9603 25.1341C52.5388 25.1341 53.0181 25.3409 53.3985 25.7623L52.8888 26.3137C52.5996 26.015 52.2951 25.8618 51.9527 25.8618C51.656 25.8618 51.4125 25.9767 51.2147 26.1988C51.0167 26.4211 50.9177 26.6968 50.9177 27.0108V27.0262C50.9177 27.3557 51.0167 27.6314 51.2221 27.8535C51.4277 28.0758 51.6788 28.1907 51.9984 28.1907C52.3331 28.1907 52.6377 28.0375 52.9344 27.7386L53.429 28.229C53.2312 28.4511 53.0181 28.6196 52.7898 28.7344C52.5616 28.8495 52.2799 28.9108 51.9527 28.9108Z" />
            <path
                d="M57.8428 28.8265H57.0284V28.3821C56.7393 28.727 56.3511 28.9031 55.8641 28.9031C55.5065 28.9031 55.202 28.8036 54.9585 28.6044C54.715 28.4051 54.5857 28.1294 54.5857 27.7694C54.5857 27.3787 54.7227 27.0876 54.989 26.8885C55.2553 26.6892 55.6054 26.5896 56.0467 26.5896C56.3967 26.5896 56.7317 26.6432 57.0437 26.7428V26.6739C57.0437 26.4211 56.9676 26.2296 56.8154 26.0994C56.6632 25.9691 56.4424 25.9001 56.1609 25.9001C55.8337 25.9001 55.4913 25.9767 55.1335 26.1301L54.9129 25.4636C55.3544 25.2645 55.8109 25.1647 56.2826 25.1647C56.8078 25.1647 57.1958 25.2951 57.4621 25.5631C57.7286 25.8312 57.858 26.2067 57.858 26.6968V28.8419L57.8428 28.8265ZM57.0437 27.5165V27.3097C56.8002 27.2102 56.5263 27.1642 56.2217 27.1642C55.9631 27.1642 55.7576 27.2178 55.613 27.3174C55.4685 27.4169 55.3924 27.5625 55.3924 27.7388C55.3924 27.8996 55.4609 28.0298 55.5902 28.1294C55.7196 28.229 55.887 28.2749 56.0848 28.2749C56.3587 28.2749 56.5871 28.206 56.7698 28.0605C56.9524 27.9226 57.0361 27.7388 57.0361 27.5089L57.0437 27.5165Z" />
            <path
                d="M59.5016 28.8264V25.203H60.3083V27.6314C61.0616 26.5511 61.6324 25.747 62.0128 25.203H62.7891V28.8264H61.99V26.4133L60.2779 28.8264H59.5016ZM61.8607 24.5288C61.6705 24.6973 61.4346 24.7892 61.1455 24.7892C60.8562 24.7892 60.6203 24.705 60.4301 24.5288C60.2398 24.3527 60.1181 24.1229 60.0725 23.8317L60.5746 23.7321C60.6735 24.0462 60.8562 24.1995 61.1377 24.1995C61.4194 24.1995 61.6096 24.0462 61.7009 23.7321L62.1955 23.8317C62.1498 24.1229 62.0357 24.3603 61.8455 24.5288H61.8607Z" />
            <path d="M65.2776 28.8265V25.9155H64.1208V25.203H67.2638V25.9155H66.1071V28.8265H65.2776Z" />
            <path
                d="M70.1706 28.9108C69.6228 28.9108 69.1737 28.727 68.8085 28.3592C68.4433 27.9915 68.2607 27.5471 68.2607 27.0187C68.2607 26.49 68.4433 26.0458 68.8085 25.678C69.1737 25.3104 69.6304 25.1266 70.1783 25.1266C70.7263 25.1266 71.1752 25.3104 71.5406 25.678C71.9058 26.0458 72.0884 26.49 72.0884 27.0187C72.0884 27.5471 71.9058 27.9839 71.5406 28.3515C71.1752 28.7193 70.711 28.9031 70.163 28.9031L70.1706 28.9108ZM70.1859 28.1907C70.5132 28.1907 70.7795 28.0758 70.9773 27.8537C71.1752 27.6316 71.2741 27.3557 71.2741 27.0263C71.2741 26.6968 71.1676 26.4288 70.9621 26.199C70.7567 25.9769 70.4904 25.8618 70.1706 25.8618C69.8511 25.8618 69.5848 25.9769 69.3869 26.199C69.1891 26.4211 69.09 26.6968 69.09 27.0263C69.09 27.3557 69.1967 27.6239 69.4022 27.846C69.6076 28.0758 69.8739 28.1907 70.1859 28.1907Z" />
            <path
                d="M73.6179 28.8265V25.203H75.4672C75.8248 25.203 76.1141 25.2874 76.3272 25.4483C76.5402 25.6091 76.6467 25.8312 76.6467 26.1071C76.6467 26.4824 76.4565 26.7658 76.0685 26.9344C76.563 27.08 76.8141 27.3787 76.8141 27.8384C76.8141 28.1447 76.6924 28.3821 76.4565 28.5585C76.2206 28.7346 75.8933 28.8189 75.49 28.8189H73.6255L73.6179 28.8265ZM74.4246 26.7045H75.2694C75.4368 26.7045 75.5661 26.6662 75.665 26.582C75.7639 26.4977 75.8096 26.3905 75.8096 26.2603C75.8096 26.1377 75.7639 26.038 75.6802 25.9614C75.5965 25.8848 75.4596 25.8465 75.2846 25.8465H74.4246V26.7045ZM74.4246 28.1754H75.3607C75.5585 28.1754 75.7107 28.1371 75.8172 28.0452C75.9237 27.9609 75.977 27.846 75.977 27.708C75.977 27.5701 75.9237 27.4629 75.8096 27.3863C75.6955 27.3097 75.5357 27.2714 75.3226 27.2714H74.4322V28.1754H74.4246Z" />
            <path d="M78.2601 28.8264V27.8841H79.1657V28.8264H78.2601Z" />
            <path
                d="M83.5565 28.8265V25.203H84.3708L85.4971 26.8806L86.631 25.203H87.4453V28.8265H86.6158V26.4135L85.4819 28.0375L84.3556 26.4288V28.8265H83.5489H83.5565Z" />
            <path
                d="M92.1785 28.8265H91.3643V28.3821C91.075 28.727 90.687 28.9031 90.2 28.9031C89.8422 28.9031 89.5379 28.8036 89.2944 28.6044C89.0509 28.4051 88.9216 28.1294 88.9216 27.7694C88.9216 27.3787 89.0585 27.0876 89.3248 26.8885C89.5911 26.6892 89.9411 26.5896 90.3826 26.5896C90.7326 26.5896 91.0674 26.6432 91.3795 26.7428V26.6739C91.3795 26.4211 91.3034 26.2296 91.1511 26.0994C90.9989 25.9691 90.7783 25.9001 90.4967 25.9001C90.1696 25.9001 89.827 25.9767 89.4694 26.1301L89.2487 25.4636C89.69 25.2645 90.1467 25.1647 90.6185 25.1647C91.1435 25.1647 91.5317 25.2951 91.798 25.5631C92.0643 25.8312 92.1937 26.2067 92.1937 26.6968V28.8419L92.1785 28.8265ZM91.3795 27.5165V27.3097C91.1359 27.2102 90.862 27.1642 90.5576 27.1642C90.2989 27.1642 90.0935 27.2178 89.9487 27.3174C89.8042 27.4169 89.7281 27.5625 89.7281 27.7388C89.7281 27.8996 89.7966 28.0298 89.9259 28.1294C90.0554 28.229 90.2228 28.2749 90.4207 28.2749C90.6946 28.2749 90.9228 28.206 91.1054 28.0605C91.2882 27.9226 91.3719 27.7388 91.3719 27.5089L91.3795 27.5165Z" />
            <path
                d="M93.8375 29.9296V25.2107H94.6594V25.8159C94.979 25.3638 95.3824 25.1341 95.877 25.1341C96.3337 25.1341 96.7217 25.3026 97.0565 25.6474C97.3913 25.9844 97.5513 26.4518 97.5513 27.0262C97.5513 27.6008 97.3837 28.0528 97.0565 28.3975C96.7293 28.7344 96.3337 28.9108 95.877 28.9108C95.3824 28.9108 94.979 28.6962 94.6594 28.2749V29.9372H93.8375V29.9296ZM95.6868 28.1907C95.9759 28.1907 96.2194 28.0834 96.4174 27.8688C96.6152 27.6544 96.7141 27.371 96.7141 27.0185C96.7141 26.6662 96.6152 26.3981 96.4174 26.1835C96.2194 25.9691 95.9759 25.8618 95.6868 25.8618C95.3976 25.8618 95.1542 25.9691 94.9485 26.1912C94.7431 26.4135 94.6366 26.6892 94.6366 27.0338C94.6366 27.3787 94.7431 27.6467 94.9485 27.8688C95.1542 28.0834 95.4052 28.1983 95.6868 28.1983V28.1907Z" />
            <path
                d="M99.0808 28.8265V25.203H99.8949V26.9344L101.463 25.203H102.429L101.036 26.7275L102.551 28.8265H101.577L100.489 27.3327L99.9025 27.9532V28.8265H99.0884H99.0808Z" />
            <path
                d="M105.245 28.9108C104.72 28.9108 104.278 28.7344 103.928 28.3821C103.578 28.0298 103.403 27.5778 103.403 27.0185C103.403 26.49 103.571 26.0457 103.898 25.6857C104.233 25.3179 104.651 25.1341 105.161 25.1341C105.709 25.1341 106.128 25.3179 106.432 25.6933C106.736 26.0686 106.889 26.5283 106.889 27.0798C106.889 27.1795 106.889 27.2561 106.873 27.3097H104.233C104.278 27.6008 104.392 27.8229 104.583 27.9837C104.773 28.1447 105.001 28.229 105.268 28.229C105.625 28.229 105.945 28.0834 106.242 27.7999L106.721 28.229C106.348 28.6808 105.861 28.9108 105.252 28.9108H105.245ZM104.217 26.7658H106.067C106.036 26.49 105.945 26.2601 105.785 26.0763C105.625 25.8925 105.412 25.8082 105.153 25.8082C104.895 25.8082 104.697 25.9001 104.529 26.0763C104.362 26.2524 104.263 26.4824 104.225 26.7658H104.217Z" />
            <path d="M109.027 28.8265V25.9155H107.87V25.203H111.013V25.9155H109.856V28.8265H109.027Z" />
            <path
                d="M112.352 28.8265V25.203H113.159V27.6314C113.912 26.5513 114.483 25.747 114.864 25.203H115.64V28.8265H114.841V26.4135L113.129 28.8265H112.352Z" />
            <path
                d="M117.352 28.8265V25.203H118.174V26.6739H119.757V25.203H120.579V28.8265H119.757V27.3633H118.174V28.8265H117.352Z" />
            <path d="M122.299 28.8265V25.203H124.848V25.9155H123.128V28.8265H122.306H122.299Z" />
            <path d="M23.3623 0.0458546H18.2486V20.0782H32.9127V15.5584H23.3623V0.0458546Z" />
            <path
                d="M62.8196 13.0917L57.8732 0.0458546H52.219L60.3464 20.193H65.2091L73.3669 0.0458546H67.7888L62.8196 13.0917Z" />
            <path
                d="M106.904 0.0458546V11.0617L98.2056 0.0458546H93.8299V20.0782H98.8601V9.00101L107.672 20.0782H111.911V0.0458546H106.904Z" />
            <path d="M90.7024 0.0458546H75.5814V4.56557H90.7024V0.0458546Z" />
            <path d="M80.0712 10.403L75.5814 7.80609V12.3258H90.7024V7.80609H80.0712V10.403Z" />
            <path d="M80.0712 18.1552L75.5814 15.5583V20.078H90.7024V15.5583H80.0712V18.1552Z" />
            <path
                d="M0 0.0458546V4.56557V7.80596V12.3257V15.5584V20.0782H4.48984H15.6079V15.5584H4.48984V12.3257H15.6079V7.80596H4.48984V4.56557H15.6079V0.0458546H4.48984H0Z" />
            <path
                d="M35.561 0.0458546V4.56557V7.80596V12.3257V15.5584V20.0782H40.0509H50.6819V15.5584H40.0509V12.3257H50.6819V7.80596H40.0509V4.56557H50.6819V0.0458546H40.0509H35.561Z" />
        </g>

    </symbol>


</svg>