<svg display="none" xmlns="http://www.w3.org/2000/svg">

    <symbol id="lock-icon" viewBox="0 0 22 22">
        <path
            d="M16.5451 7.86809C16.6363 7.86809 16.7237 7.83188 16.7882 7.76741C16.8527 7.70295 16.8889 7.61551 16.8889 7.52434V6.57662C16.8889 3.32956 14.2468 0.6875 10.9998 0.6875C7.75271 0.6875 5.11064 3.32956 5.11064 6.57662V9.58169H3.08252C2.99135 9.58169 2.90392 9.6179 2.83945 9.68237C2.77499 9.74683 2.73877 9.83427 2.73877 9.92544V20.9688C2.73877 21.0599 2.77499 21.1474 2.83945 21.2118C2.90392 21.2763 2.99135 21.3125 3.08252 21.3125H18.917C19.0082 21.3125 19.0956 21.2763 19.1601 21.2118C19.2246 21.1474 19.2608 21.0599 19.2608 20.9688V9.92544C19.2608 9.83427 19.2246 9.74683 19.1601 9.68237C19.0956 9.6179 19.0082 9.58169 18.917 9.58169H5.79814V6.57662C5.79814 3.70837 8.13152 1.375 10.9998 1.375C13.868 1.375 16.2014 3.70837 16.2014 6.57662V7.52434C16.2014 7.61551 16.2376 7.70295 16.3021 7.76741C16.3665 7.83188 16.454 7.86809 16.5451 7.86809ZM18.5733 20.625H3.42627V10.2692H18.5733V20.625Z" />
        <path
            d="M10.656 15.8317V17.6329C10.656 17.7241 10.6922 17.8115 10.7567 17.876C10.8212 17.9405 10.9086 17.9767 10.9998 17.9767C11.0909 17.9767 11.1784 17.9405 11.2428 17.876C11.3073 17.8115 11.3435 17.7241 11.3435 17.6329V15.8317C12.0162 15.6749 12.5205 15.0737 12.5205 14.3539C12.5205 13.5155 11.8385 12.8335 10.9998 12.8335C10.161 12.8335 9.479 13.5155 9.479 14.3539C9.479 15.0737 9.98294 15.6753 10.656 15.8317ZM10.9998 13.5207C11.4593 13.5207 11.833 13.8943 11.833 14.3536C11.833 14.8128 11.4593 15.1865 10.9998 15.1865C10.5402 15.1865 10.1665 14.8128 10.1665 14.3536C10.1665 13.8943 10.5402 13.5207 10.9998 13.5207Z" />
    </symbol>

    <symbol id="location-icon" viewBox="0 0 22 22">
        <path
            d="M10.9999 21.6562C10.9396 21.6563 10.8803 21.6404 10.828 21.6102C10.7757 21.58 10.7323 21.5366 10.7021 21.4844C10.3584 20.8884 9.91711 20.1618 9.40621 19.3205C7.05711 15.4494 3.83789 10.1484 3.83789 7.50578C3.83789 3.55652 7.05066 0.34375 10.9999 0.34375C14.9492 0.34375 18.162 3.55652 18.162 7.50578C18.162 10.1484 14.9436 15.4498 12.5936 19.3222C12.0845 20.1627 11.6419 20.8884 11.2977 21.4844C11.2675 21.5366 11.2241 21.58 11.1718 21.6102C11.1196 21.6404 11.0603 21.6563 10.9999 21.6562ZM10.9999 1.03125C7.43008 1.03125 4.52539 3.93551 4.52539 7.50578C4.52539 9.955 7.81637 15.3764 9.99402 18.9634C10.37 19.5834 10.709 20.1412 10.9999 20.6323C11.2908 20.1412 11.6294 19.5834 12.0058 18.9638C14.1835 15.3768 17.4745 9.95586 17.4745 7.50578C17.4745 3.93551 14.5698 1.03125 10.9999 1.03125Z" />
        <path
            d="M11 10.6482C10.3675 10.6482 9.74928 10.4606 9.22342 10.1092C8.69755 9.75787 8.28769 9.25845 8.04566 8.67414C7.80363 8.08983 7.74031 7.44687 7.86369 6.82657C7.98708 6.20627 8.29163 5.63649 8.73884 5.18928C9.18605 4.74207 9.75584 4.43752 10.3761 4.31413C10.9964 4.19075 11.6394 4.25407 12.2237 4.4961C12.808 4.73813 13.3074 5.14799 13.6588 5.67386C14.0102 6.19972 14.1977 6.81797 14.1977 7.45042C14.1968 8.29823 13.8596 9.11106 13.2601 9.71056C12.6606 10.3101 11.8478 10.6472 11 10.6482ZM11 4.94062C10.5035 4.94062 10.0181 5.08785 9.60533 5.3637C9.19251 5.63954 8.87077 6.03161 8.68079 6.49032C8.49081 6.94904 8.44112 7.45378 8.53801 7.94073C8.63491 8.42768 8.87402 8.87496 9.22513 9.22601C9.57624 9.57705 10.0236 9.81609 10.5105 9.9129C10.9975 10.0097 11.5022 9.95994 11.9609 9.76988C12.4196 9.57982 12.8116 9.25801 13.0874 8.84515C13.3632 8.43229 13.5103 7.94692 13.5102 7.45042C13.5094 6.78495 13.2447 6.14697 12.7741 5.67645C12.3035 5.20593 11.6655 4.9413 11 4.94062Z" />
    </symbol>

    <symbol id="arrow-top" viewBox="0 0 22 22">
        <path d="M19 14L11.2058 7.5L3.41152 14" />
    </symbol>
    <symbol id="arrow-bottom" viewBox="0 0 22 22">
        <path d="M3 8L10.7943 14.5L18.5885 8"/>
    </symbol>

</svg>