<svg display="none" xmlns="http://www.w3.org/2000/svg">

    <symbol id="lock-icon" viewBox="0 0 22 22">
        <path
            d="M16.5451 7.86809C16.6363 7.86809 16.7237 7.83188 16.7882 7.76741C16.8527 7.70295 16.8889 7.61551 16.8889 7.52434V6.57662C16.8889 3.32956 14.2468 0.6875 10.9998 0.6875C7.75271 0.6875 5.11064 3.32956 5.11064 6.57662V9.58169H3.08252C2.99135 9.58169 2.90392 9.6179 2.83945 9.68237C2.77499 9.74683 2.73877 9.83427 2.73877 9.92544V20.9688C2.73877 21.0599 2.77499 21.1474 2.83945 21.2118C2.90392 21.2763 2.99135 21.3125 3.08252 21.3125H18.917C19.0082 21.3125 19.0956 21.2763 19.1601 21.2118C19.2246 21.1474 19.2608 21.0599 19.2608 20.9688V9.92544C19.2608 9.83427 19.2246 9.74683 19.1601 9.68237C19.0956 9.6179 19.0082 9.58169 18.917 9.58169H5.79814V6.57662C5.79814 3.70837 8.13152 1.375 10.9998 1.375C13.868 1.375 16.2014 3.70837 16.2014 6.57662V7.52434C16.2014 7.61551 16.2376 7.70295 16.3021 7.76741C16.3665 7.83188 16.454 7.86809 16.5451 7.86809ZM18.5733 20.625H3.42627V10.2692H18.5733V20.625Z"
           />
        <path
            d="M10.656 15.8317V17.6329C10.656 17.7241 10.6922 17.8115 10.7567 17.876C10.8212 17.9405 10.9086 17.9767 10.9998 17.9767C11.0909 17.9767 11.1784 17.9405 11.2428 17.876C11.3073 17.8115 11.3435 17.7241 11.3435 17.6329V15.8317C12.0162 15.6749 12.5205 15.0737 12.5205 14.3539C12.5205 13.5155 11.8385 12.8335 10.9998 12.8335C10.161 12.8335 9.479 13.5155 9.479 14.3539C9.479 15.0737 9.98294 15.6753 10.656 15.8317ZM10.9998 13.5207C11.4593 13.5207 11.833 13.8943 11.833 14.3536C11.833 14.8128 11.4593 15.1865 10.9998 15.1865C10.5402 15.1865 10.1665 14.8128 10.1665 14.3536C10.1665 13.8943 10.5402 13.5207 10.9998 13.5207Z"
            />
    </symbol>


</svg>